<?xml version="1.0" encoding="utf-8"?>
<!-- Generator: Adobe Illustrator 21.0.0, SVG Export Plug-In . SVG Version: 6.00 Build 0)  -->
<svg version="1.1" xmlns="http://www.w3.org/2000/svg" xmlns:xlink="http://www.w3.org/1999/xlink" x="0px" y="0px"
	 viewBox="0 0 1024 1024" style="enable-background:new 0 0 1024 1024;" xml:space="preserve">
<style type="text/css">
	.st0{display:none;}
	.st1{display:inline;}
	.st2{opacity:0.25;}
	.st3{display:inline;opacity:0.25;}
	.st4{enable-background:new    ;}
	.st5{fill:url(#SVGID_1_);}
	.st6{fill:url(#SVGID_2_);}
	.st7{clip-path:url(#SVGID_5_);enable-background:new    ;}
	.st8{fill:url(#SVGID_6_);}
	.st9{fill:url(#SVGID_7_);}
	.st10{fill:url(#SVGID_8_);}
	.st11{fill:url(#SVGID_9_);}
	.st12{fill:url(#SVGID_10_);}
	.st13{fill:url(#SVGID_11_);}
	.st14{fill:url(#SVGID_12_);}
	.st15{fill:url(#SVGID_13_);}
	.st16{fill:url(#SVGID_14_);}
	.st17{fill:url(#SVGID_15_);}
	.st18{fill:url(#SVGID_16_);}
	.st19{fill:url(#SVGID_17_);}
	.st20{fill:url(#SVGID_18_);}
	.st21{fill:url(#SVGID_19_);}
	.st22{fill:url(#SVGID_20_);}
	.st23{fill:url(#SVGID_21_);}
	.st24{fill:url(#SVGID_22_);}
	.st25{fill:url(#SVGID_23_);}
	.st26{clip-path:url(#SVGID_26_);enable-background:new    ;}
	.st27{fill:url(#SVGID_27_);}
	.st28{fill:url(#SVGID_28_);}
	.st29{fill:url(#SVGID_29_);}
	.st30{fill:url(#SVGID_30_);}
	.st31{fill:url(#SVGID_31_);}
	.st32{fill:url(#SVGID_32_);}
	.st33{fill:url(#SVGID_33_);}
	.st34{fill:url(#SVGID_34_);}
	.st35{fill:url(#SVGID_35_);}
	.st36{fill:url(#SVGID_36_);}
	.st37{clip-path:url(#SVGID_39_);enable-background:new    ;}
	.st38{fill:url(#SVGID_40_);}
	.st39{fill:url(#SVGID_41_);}
	.st40{fill:url(#SVGID_42_);}
	.st41{fill:url(#SVGID_43_);}
	.st42{fill:url(#SVGID_44_);}
	.st43{fill:url(#SVGID_45_);}
	.st44{fill:url(#SVGID_46_);}
	.st45{fill:url(#SVGID_49_);}
	.st46{fill:url(#SVGID_55_);}
	.st47{fill:url(#SVGID_56_);}
</style>
<g id="图层_1" class="st0">
	<g id="bg">
		<g id="图层_2" class="st1">
			<g id="图标参考线">
				<g id="图标尺寸" class="st2">
					<path d="M1018.2,5.8v1012.5H5.8V5.8H1018.2 M1024,0H0v1024h1024V0z"/>
					<path d="M512,28.8c266.9,0,483.2,216.4,483.2,483.2S778.9,995.2,512,995.2S28.8,778.9,28.8,512S245.1,28.8,512,28.8 M512,23
						C241.9,23,23,241.9,23,512s218.9,489,489,489s489-218.9,489-489C1000.7,242,782,23.3,512,23z"/>
					<path d="M949.2,74.8v874.4H74.8V74.8H949.2 M955,69H69v886h886V69z"/>
					<path d="M995.2,28.8v966.5H28.8V28.8H995.2 M1001,23H23v978h978V23z"/>
					<path d="M995.2,189.8v644.3H28.8V189.8H995.2 M1001,184.1H23v655.8h978V184.1z"/>
				</g>
			</g>
		</g>
	</g>
	<g id="图标尺寸_1_" class="st3">
		<g>
			<path d="M1017.1,4.6v1010.2H6.9V4.6L1017.1,4.6 M1021.7,0h-6.9H4.6H0v6.9v1010.2v6.9h6.9h1010.2h6.9v-6.9V6.9V0H1021.7z"/>
		</g>
		<g>
			<path d="M512,27.6c266.3,0,482.2,215.8,482.2,482.2S778.3,991.9,512,991.9S29.8,776.1,29.8,509.7S245.7,27.6,512,27.6 M512,23
				c-268.6,0-489,218.1-489,486.7s218.1,486.7,489,486.7s489-218.1,489-486.7S780.6,23,512,23L512,23z"/>
		</g>
		<g>
			<path d="M948.2,73.5V946H75.8V73.5L948.2,73.5 M952.8,68.9h-6.9H73.5h-4.6v6.9v872.5v6.9h6.9h872.5h6.9v-6.9V75.8v-6.9H952.8z"/>
		</g>
		<g>
			<path d="M994.1,27.6v964.3H29.8V27.6L994.1,27.6 M998.7,23h-6.9H27.5h-4.6v6.9v964.3v6.9h6.9h964.3h6.9v-6.9V29.9V23H998.7z"/>
		</g>
		<g>
			<path d="M994.1,188.3v642.9H29.8V188.3L994.1,188.3 M998.7,183.7h-6.9H27.5h-4.6v4.6v642.9v6.9h6.9h964.3h6.9v-6.9V188.3v-4.6
				H998.7z"/>
		</g>
	</g>
</g>
<g id="图层_2_1_">
	<g>
		<g class="st4">
			<linearGradient id="SVGID_1_" gradientUnits="userSpaceOnUse" x1="68.4083" y1="806.0099" x2="955.9792" y2="806.0099">
				<stop  offset="0" style="stop-color:#8EB0EC"/>
				<stop  offset="1" style="stop-color:#6386DB"/>
			</linearGradient>
			<path class="st5" d="M955.8,646.2c-0.1,0.7-0.1,1.5-0.3,2.2c-0.1,0.6-0.3,1.2-0.4,1.8c-0.2,0.7-0.4,1.4-0.6,2.1
				c-0.2,0.6-0.5,1.1-0.7,1.7c-0.3,0.7-0.6,1.5-1,2.2c-0.3,0.5-0.6,1-0.9,1.6c-0.5,0.8-1,1.6-1.6,2.4c-0.6,0.8-1.2,1.5-1.8,2.3
				c-0.2,0.2-0.3,0.4-0.5,0.5c-0.9,1-1.9,1.9-2.9,2.9c-0.7,0.6-1.4,1.2-2.1,1.8c-0.6,0.5-1.3,1-1.9,1.5c-0.8,0.6-1.7,1.1-2.5,1.7
				c-0.9,0.6-1.7,1.2-2.6,1.7L563,889.2c-2.1,1.2-4.3,2.3-6.6,3.3c-0.7,0.3-1.3,0.6-2,0.8c-1.8,0.7-3.6,1.4-5.5,2.1
				c-0.7,0.2-1.3,0.5-2,0.7c-1.2,0.4-2.4,0.7-3.6,1c-0.9,0.2-1.8,0.5-2.7,0.7c-1.3,0.3-2.6,0.6-3.9,0.8c-0.9,0.2-1.7,0.4-2.6,0.5
				c-2.6,0.5-5.3,0.8-7.9,1.1c-0.8,0.1-1.6,0.1-2.5,0.2c-1.6,0.1-3.2,0.2-4.7,0.3c-1,0-2,0.1-3,0.1c-1.3,0-2.6,0-3.8,0
				c-1.1,0-2.1,0-3.2-0.1c-1.2,0-2.4-0.1-3.6-0.2c-1.1-0.1-2.1-0.2-3.2-0.3c-1.2-0.1-2.3-0.2-3.5-0.4c-1-0.1-2.1-0.3-3.1-0.4
				c-1.2-0.2-2.5-0.4-3.7-0.6c-1-0.2-1.9-0.4-2.9-0.6c-1.5-0.3-2.9-0.7-4.3-1.1c-0.8-0.2-1.6-0.4-2.4-0.6c-2.6-0.7-5.1-1.6-7.5-2.5
				c-1.2-0.5-2.4-1-3.5-1.5c-0.6-0.3-1.2-0.5-1.8-0.8c-1.8-0.8-3.5-1.7-5.1-2.7L89.2,672.6c-13.8-8-20.7-18.4-20.6-28.8l-0.2,67.3
				c0,10.4,6.8,20.9,20.6,28.8l375.1,216.6c1.6,0.9,3.4,1.8,5.1,2.7c0.6,0.3,1.2,0.5,1.8,0.8c1,0.5,2.1,0.9,3.1,1.4
				c0.1,0,0.3,0.1,0.4,0.1c2.4,0.9,4.9,1.8,7.5,2.5c0.2,0.1,0.4,0.1,0.6,0.2c0.6,0.2,1.2,0.3,1.8,0.4c1.4,0.4,2.9,0.7,4.3,1.1
				c0.4,0.1,0.8,0.2,1.1,0.3c0.6,0.1,1.2,0.2,1.7,0.3c1.2,0.2,2.5,0.5,3.7,0.6c0.5,0.1,1,0.2,1.5,0.3c0.5,0.1,1.1,0.1,1.6,0.2
				c1.2,0.1,2.3,0.3,3.5,0.4c0.6,0.1,1.1,0.1,1.7,0.2c0.5,0,1,0,1.6,0.1c1.2,0.1,2.4,0.1,3.6,0.2c0.6,0,1.2,0.1,1.8,0.1
				c0.5,0,0.9,0,1.4,0c1.3,0,2.6,0,3.8,0c0.6,0,1.3,0,1.9,0c0.4,0,0.7-0.1,1.1-0.1c1.6-0.1,3.2-0.2,4.7-0.3c0.6-0.1,1.3-0.1,1.9-0.1
				c0.2,0,0.4-0.1,0.6-0.1c2.7-0.3,5.3-0.6,7.9-1.1c0.1,0,0.3,0,0.4-0.1c0.8-0.1,1.5-0.3,2.2-0.5c1.3-0.3,2.6-0.5,3.9-0.8
				c0.9-0.2,1.8-0.5,2.7-0.7c1.2-0.3,2.4-0.7,3.6-1c0.3-0.1,0.5-0.1,0.8-0.2c0.4-0.1,0.8-0.3,1.2-0.5c1.9-0.6,3.7-1.3,5.5-2.1
				c0.7-0.3,1.3-0.6,2-0.8c2.3-1,4.5-2.1,6.6-3.3l372.7-216.6c0.3-0.2,0.6-0.3,0.9-0.5c0.6-0.4,1.2-0.8,1.8-1.2
				c0.8-0.6,1.7-1.1,2.5-1.7c0.7-0.5,1.3-1,2-1.5c0.7-0.6,1.5-1.2,2.1-1.8c0.1-0.1,0.3-0.2,0.4-0.4c0.9-0.8,1.7-1.7,2.5-2.5
				c0.2-0.2,0.3-0.4,0.5-0.5c0.5-0.5,0.9-1,1.4-1.6c0.2-0.2,0.3-0.5,0.5-0.7c0.6-0.8,1.1-1.6,1.6-2.4c0.2-0.3,0.5-0.7,0.7-1
				c0.1-0.2,0.2-0.4,0.2-0.5c0.4-0.7,0.7-1.4,1-2.2c0.2-0.4,0.4-0.8,0.6-1.3c0.1-0.1,0.1-0.3,0.1-0.4c0.2-0.7,0.4-1.4,0.6-2.1
				c0.1-0.5,0.3-0.9,0.4-1.4c0-0.1,0-0.3,0-0.4c0.1-0.7,0.2-1.5,0.3-2.2c0-0.5,0.1-0.9,0.2-1.4c0-0.2,0-0.4,0-0.6l0.2-67.3
				C956,644.9,955.9,645.6,955.8,646.2z"/>
			<g>
				<g>
					<linearGradient id="SVGID_2_" gradientUnits="userSpaceOnUse" x1="68.5989" y1="644.002" x2="955.9794" y2="644.002">
						<stop  offset="0" style="stop-color:#6386DB"/>
						<stop  offset="1" style="stop-color:#8EB0EC"/>
					</linearGradient>
					<path class="st6" d="M935.4,615.4c27.3,15.8,27.5,41.4,0.3,57.2L563,889.2c-27.2,15.8-71.4,15.8-98.7,0L89.2,672.6
						c-27.4-15.8-27.5-41.4-0.4-57.2l372.7-216.6c27.2-15.8,71.4-15.8,98.8,0L935.4,615.4z"/>
				</g>
			</g>
		</g>
	</g>
	<g>
		<g class="st4">
			<g class="st4">
				<defs>
					<path id="SVGID_3_" class="st4" d="M676.3,439.9l-130.4-75.8c17.3-10,31.3-34.2,31.2-54.1l130.4,75.8
						C707.6,405.6,693.6,429.9,676.3,439.9z"/>
				</defs>
				<linearGradient id="SVGID_4_" gradientUnits="userSpaceOnUse" x1="545.8558" y1="374.9141" x2="707.5266" y2="374.9141">
					<stop  offset="0" style="stop-color:#8EB0EC"/>
					<stop  offset="1" style="stop-color:#6386DB"/>
				</linearGradient>
				<use xlink:href="#SVGID_3_"  style="overflow:visible;fill:url(#SVGID_4_);"/>
				<clipPath id="SVGID_5_">
					<use xlink:href="#SVGID_3_"  style="overflow:visible;"/>
				</clipPath>
				<g class="st7">
					<linearGradient id="SVGID_6_" gradientUnits="userSpaceOnUse" x1="545.8558" y1="397.9356" x2="686.7402" y2="397.9356">
						<stop  offset="0" style="stop-color:#8EB0EC"/>
						<stop  offset="1" style="stop-color:#6386DB"/>
					</linearGradient>
					<path class="st8" d="M676.3,439.9l-130.4-75.8c3.7-2.1,7.2-4.9,10.5-8.1l130.4,75.8C683.5,435,680,437.8,676.3,439.9"/>
					<linearGradient id="SVGID_7_" gradientUnits="userSpaceOnUse" x1="556.3082" y1="392.0645" x2="690.1617" y2="392.0645">
						<stop  offset="0" style="stop-color:#8EB0EC"/>
						<stop  offset="1" style="stop-color:#6386DB"/>
					</linearGradient>
					<path class="st9" d="M686.7,431.8L556.3,356c1.2-1.2,2.3-2.4,3.4-3.6l130.4,75.8C689.1,429.4,687.9,430.6,686.7,431.8"/>
					<linearGradient id="SVGID_8_" gradientUnits="userSpaceOnUse" x1="559.7297" y1="388.6927" x2="692.7057" y2="388.6927">
						<stop  offset="0" style="stop-color:#8EB0EC"/>
						<stop  offset="1" style="stop-color:#6386DB"/>
					</linearGradient>
					<path class="st10" d="M690.2,428.1l-130.4-75.8c0.9-1,1.7-2,2.5-3.1L692.7,425C691.9,426.1,691,427.1,690.2,428.1"/>
					<linearGradient id="SVGID_9_" gradientUnits="userSpaceOnUse" x1="562.2736" y1="385.7277" x2="694.7944" y2="385.7277">
						<stop  offset="0" style="stop-color:#8EB0EC"/>
						<stop  offset="1" style="stop-color:#6386DB"/>
					</linearGradient>
					<path class="st11" d="M692.7,425l-130.4-75.8c0.7-0.9,1.4-1.9,2.1-2.8l130.4,75.8C694.1,423.2,693.4,424.1,692.7,425"/>
					<linearGradient id="SVGID_10_" gradientUnits="userSpaceOnUse" x1="564.3623" y1="382.9562" x2="696.61" y2="382.9562">
						<stop  offset="0" style="stop-color:#8EB0EC"/>
						<stop  offset="1" style="stop-color:#6386DB"/>
					</linearGradient>
					<path class="st12" d="M694.8,422.2l-130.4-75.8c0.6-0.9,1.2-1.8,1.8-2.7l130.4,75.8C696,420.4,695.4,421.3,694.8,422.2"/>
					<linearGradient id="SVGID_11_" gradientUnits="userSpaceOnUse" x1="566.1779" y1="380.2735" x2="698.2317" y2="380.2735">
						<stop  offset="0" style="stop-color:#8EB0EC"/>
						<stop  offset="1" style="stop-color:#6386DB"/>
					</linearGradient>
					<path class="st13" d="M696.6,419.5l-130.4-75.8c0.6-0.9,1.1-1.8,1.6-2.7l130.4,75.8C697.7,417.7,697.2,418.6,696.6,419.5"/>
					<linearGradient id="SVGID_12_" gradientUnits="userSpaceOnUse" x1="567.7996" y1="377.6242" x2="699.7051" y2="377.6242">
						<stop  offset="0" style="stop-color:#8EB0EC"/>
						<stop  offset="1" style="stop-color:#6386DB"/>
					</linearGradient>
					<path class="st14" d="M698.2,416.8L567.8,341c0.5-0.9,1-1.8,1.5-2.6l130.4,75.8C699.2,415.1,698.7,416,698.2,416.8"/>
					<linearGradient id="SVGID_13_" gradientUnits="userSpaceOnUse" x1="569.273" y1="374.9674" x2="701.0579" y2="374.9674">
						<stop  offset="0" style="stop-color:#8EB0EC"/>
						<stop  offset="1" style="stop-color:#6386DB"/>
					</linearGradient>
					<path class="st15" d="M699.7,414.2l-130.4-75.8c0.5-0.9,0.9-1.8,1.4-2.7l130.4,75.8C700.6,412.4,700.2,413.3,699.7,414.2"/>
					<linearGradient id="SVGID_14_" gradientUnits="userSpaceOnUse" x1="570.6258" y1="372.2704" x2="702.3051" y2="372.2704">
						<stop  offset="0" style="stop-color:#8EB0EC"/>
						<stop  offset="1" style="stop-color:#6386DB"/>
					</linearGradient>
					<path class="st16" d="M701.1,411.5l-130.4-75.8c0.4-0.9,0.9-1.8,1.2-2.7l130.4,75.8C701.9,409.7,701.5,410.6,701.1,411.5"/>
					<linearGradient id="SVGID_15_" gradientUnits="userSpaceOnUse" x1="571.873" y1="369.4999" x2="703.4567" y2="369.4999">
						<stop  offset="0" style="stop-color:#8EB0EC"/>
						<stop  offset="1" style="stop-color:#6386DB"/>
					</linearGradient>
					<path class="st17" d="M702.3,408.8L571.9,333c0.4-0.9,0.8-1.9,1.2-2.8L703.5,406C703.1,406.9,702.7,407.9,702.3,408.8"/>
					<linearGradient id="SVGID_16_" gradientUnits="userSpaceOnUse" x1="573.0246" y1="366.6104" x2="704.5195" y2="366.6104">
						<stop  offset="0" style="stop-color:#8EB0EC"/>
						<stop  offset="1" style="stop-color:#6386DB"/>
					</linearGradient>
					<path class="st18" d="M703.5,406L573,330.2c0.4-1,0.7-2,1.1-3L704.5,403C704.2,404,703.8,405,703.5,406"/>
					<linearGradient id="SVGID_17_" gradientUnits="userSpaceOnUse" x1="574.0875" y1="363.5299" x2="705.4959" y2="363.5299">
						<stop  offset="0" style="stop-color:#8EB0EC"/>
						<stop  offset="1" style="stop-color:#6386DB"/>
					</linearGradient>
					<path class="st19" d="M704.5,403l-130.4-75.8c0.4-1.1,0.7-2.1,1-3.2l130.4,75.8C705.2,400.9,704.9,402,704.5,403"/>
					<linearGradient id="SVGID_18_" gradientUnits="userSpaceOnUse" x1="575.0638" y1="360.1305" x2="706.3786" y2="360.1305">
						<stop  offset="0" style="stop-color:#8EB0EC"/>
						<stop  offset="1" style="stop-color:#6386DB"/>
					</linearGradient>
					<path class="st20" d="M705.5,399.8L575.1,324c0.3-1.2,0.6-2.4,0.9-3.6l130.4,75.8C706.1,397.4,705.8,398.6,705.5,399.8"/>
					<linearGradient id="SVGID_19_" gradientUnits="userSpaceOnUse" x1="575.9465" y1="356.1555" x2="707.1254" y2="356.1555">
						<stop  offset="0" style="stop-color:#8EB0EC"/>
						<stop  offset="1" style="stop-color:#6386DB"/>
					</linearGradient>
					<path class="st21" d="M706.4,396.2l-130.4-75.8c0.3-1.5,0.6-2.9,0.7-4.3l130.4,75.8C706.9,393.3,706.7,394.8,706.4,396.2"/>
					<linearGradient id="SVGID_20_" gradientUnits="userSpaceOnUse" x1="576.6934" y1="350.9124" x2="707.5266" y2="350.9124">
						<stop  offset="0" style="stop-color:#8EB0EC"/>
						<stop  offset="1" style="stop-color:#6386DB"/>
					</linearGradient>
					<path class="st22" d="M707.1,391.9l-130.4-75.8c0.3-2.1,0.4-4.1,0.4-6.1l130.4,75.8C707.5,387.8,707.4,389.8,707.1,391.9"/>
				</g>
			</g>
			<g>
				<linearGradient id="SVGID_21_" gradientUnits="userSpaceOnUse" x1="576.5954" y1="259.838" x2="707.5265" y2="259.838">
					<stop  offset="0" style="stop-color:#8EB0EC"/>
					<stop  offset="1" style="stop-color:#6386DB"/>
				</linearGradient>
				<polygon class="st23" points="707.5,385.7 577.1,309.9 576.6,133.9 707,209.7 				"/>
			</g>
			<linearGradient id="SVGID_22_" gradientUnits="userSpaceOnUse" x1="576.5953" y1="146.8049" x2="808.5871" y2="146.8049">
				<stop  offset="0" style="stop-color:#8EB0EC"/>
				<stop  offset="1" style="stop-color:#6386DB"/>
			</linearGradient>
			<path class="st24" d="M791.5,161.5c0.7-0.3,1.5-0.5,2.2-0.8c0.5-0.1,0.9-0.3,1.4-0.4c0.4-0.1,0.9-0.2,1.3-0.3
				c0.6-0.1,1.1-0.2,1.7-0.3c0.3,0,0.6-0.1,0.9-0.1c0.7,0,1.4-0.1,2,0c0.1,0,0.3,0,0.5,0c0.8,0,1.6,0.1,2.3,0.3
				c0.2,0,0.4,0.1,0.6,0.1c0.6,0.1,1.2,0.3,1.7,0.5c0.2,0.1,0.4,0.1,0.5,0.2c0.7,0.3,1.4,0.6,2.1,1L678.2,86c-0.1,0-0.1-0.1-0.2-0.1
				c-0.5-0.3-1-0.5-1.6-0.8c-0.1,0-0.2-0.1-0.3-0.1c-0.2-0.1-0.3-0.1-0.5-0.2c-0.3-0.1-0.5-0.2-0.8-0.3c-0.3-0.1-0.6-0.1-0.9-0.2
				c-0.2,0-0.4-0.1-0.6-0.1c-0.1,0-0.2-0.1-0.3-0.1c-0.6-0.1-1.2-0.2-1.9-0.2c0,0-0.1,0-0.1,0c-0.1,0-0.3,0-0.5,0c-0.5,0-1,0-1.5,0
				c-0.2,0-0.3,0-0.5,0.1c-0.3,0-0.6,0.1-0.9,0.1c-0.3,0-0.6,0-0.9,0.1c-0.3,0-0.5,0.1-0.8,0.2c-0.4,0.1-0.8,0.2-1.3,0.3
				c-0.2,0.1-0.5,0.1-0.7,0.1c-0.2,0.1-0.5,0.2-0.7,0.2c-0.7,0.2-1.5,0.5-2.2,0.8c-0.3,0.1-0.5,0.2-0.8,0.3
				c-0.1,0.1-0.3,0.2-0.4,0.2c-1.3,0.6-2.6,1.2-3.9,2l-79.3,45.8L707,209.7l79.3-45.8c1.3-0.8,2.6-1.4,3.9-2
				C790.6,161.8,791.1,161.7,791.5,161.5z"/>
			<g>
				<linearGradient id="SVGID_23_" gradientUnits="userSpaceOnUse" x1="250.7286" y1="487.18" x2="676.2879" y2="487.18">
					<stop  offset="0" style="stop-color:#8EB0EC"/>
					<stop  offset="1" style="stop-color:#6386DB"/>
				</linearGradient>
				<polygon class="st25" points="381.2,610.3 250.7,534.5 545.9,364.1 676.3,439.9 				"/>
			</g>
			<g class="st4">
				<defs>
					<path id="SVGID_24_" class="st4" d="M358.9,612.5l-130.4-75.8c5.7,3.3,13.6,2.8,22.3-2.2l130.4,75.8
						C372.5,615.3,364.6,615.8,358.9,612.5z"/>
				</defs>
				<linearGradient id="SVGID_25_" gradientUnits="userSpaceOnUse" x1="228.4376" y1="574.5247" x2="381.1606" y2="574.5247">
					<stop  offset="0" style="stop-color:#8EB0EC"/>
					<stop  offset="1" style="stop-color:#6386DB"/>
				</linearGradient>
				<use xlink:href="#SVGID_24_"  style="overflow:visible;fill:url(#SVGID_25_);"/>
				<clipPath id="SVGID_26_">
					<use xlink:href="#SVGID_24_"  style="overflow:visible;"/>
				</clipPath>
				<g class="st26">
					<linearGradient id="SVGID_27_" gradientUnits="userSpaceOnUse" x1="228.4377" y1="574.608" x2="359.0412" y2="574.608">
						<stop  offset="0" style="stop-color:#8EB0EC"/>
						<stop  offset="1" style="stop-color:#6386DB"/>
					</linearGradient>
					<path class="st27" d="M358.9,612.5l-130.4-75.8c0.1,0,0.1,0.1,0.2,0.1L359,612.6C359,612.5,358.9,612.5,358.9,612.5"/>
					<linearGradient id="SVGID_28_" gradientUnits="userSpaceOnUse" x1="228.6091" y1="575.0417" x2="360.615" y2="575.0417">
						<stop  offset="0" style="stop-color:#8EB0EC"/>
						<stop  offset="1" style="stop-color:#6386DB"/>
					</linearGradient>
					<path class="st28" d="M359,612.6l-130.4-75.8c0.5,0.3,1,0.5,1.6,0.8l130.4,75.8C360.1,613.1,359.5,612.8,359,612.6"/>
					<linearGradient id="SVGID_29_" gradientUnits="userSpaceOnUse" x1="230.1829" y1="575.7181" x2="362.2695" y2="575.7181">
						<stop  offset="0" style="stop-color:#8EB0EC"/>
						<stop  offset="1" style="stop-color:#6386DB"/>
					</linearGradient>
					<path class="st29" d="M360.6,613.3l-130.4-75.8c0.5,0.2,1.1,0.4,1.7,0.6l130.4,75.8C361.7,613.7,361.2,613.6,360.6,613.3"/>
					<linearGradient id="SVGID_30_" gradientUnits="userSpaceOnUse" x1="231.8374" y1="576.2127" x2="364.0282" y2="576.2127">
						<stop  offset="0" style="stop-color:#8EB0EC"/>
						<stop  offset="1" style="stop-color:#6386DB"/>
					</linearGradient>
					<path class="st30" d="M362.3,613.9l-130.4-75.8c0.6,0.2,1.2,0.3,1.8,0.4L364,614.3C363.4,614.2,362.8,614.1,362.3,613.9"/>
					<linearGradient id="SVGID_31_" gradientUnits="userSpaceOnUse" x1="233.5962" y1="576.5261" x2="365.9206" y2="576.5261">
						<stop  offset="0" style="stop-color:#8EB0EC"/>
						<stop  offset="1" style="stop-color:#6386DB"/>
					</linearGradient>
					<path class="st31" d="M364,614.3l-130.4-75.8c0.6,0.1,1.2,0.2,1.9,0.2l130.4,75.8C365.3,614.5,364.6,614.4,364,614.3"/>
					<linearGradient id="SVGID_32_" gradientUnits="userSpaceOnUse" x1="235.4885" y1="576.6551" x2="367.9933" y2="576.6551">
						<stop  offset="0" style="stop-color:#8EB0EC"/>
						<stop  offset="1" style="stop-color:#6386DB"/>
					</linearGradient>
					<path class="st32" d="M365.9,614.5l-130.4-75.8c0.7,0,1.4,0,2.1,0L368,614.6C367.3,614.6,366.6,614.6,365.9,614.5"/>
					<linearGradient id="SVGID_33_" gradientUnits="userSpaceOnUse" x1="237.5612" y1="576.5364" x2="370.3283" y2="576.5364">
						<stop  offset="0" style="stop-color:#8EB0EC"/>
						<stop  offset="1" style="stop-color:#6386DB"/>
					</linearGradient>
					<path class="st33" d="M368,614.6l-130.4-75.8c0.8,0,1.5-0.1,2.3-0.2l130.4,75.8C369.5,614.4,368.8,614.5,368,614.6"/>
					<linearGradient id="SVGID_34_" gradientUnits="userSpaceOnUse" x1="239.8963" y1="576.1251" x2="373.0838" y2="576.1251">
						<stop  offset="0" style="stop-color:#8EB0EC"/>
						<stop  offset="1" style="stop-color:#6386DB"/>
					</linearGradient>
					<path class="st34" d="M370.3,614.3l-130.4-75.8c0.9-0.1,1.8-0.3,2.8-0.6l130.4,75.8C372.1,614,371.2,614.2,370.3,614.3"/>
					<linearGradient id="SVGID_35_" gradientUnits="userSpaceOnUse" x1="242.6517" y1="575.1947" x2="376.7726" y2="575.1947">
						<stop  offset="0" style="stop-color:#8EB0EC"/>
						<stop  offset="1" style="stop-color:#6386DB"/>
					</linearGradient>
					<path class="st35" d="M373.1,613.7l-130.4-75.8c1.2-0.3,2.4-0.7,3.7-1.3l130.4,75.8C375.5,613,374.3,613.4,373.1,613.7"/>
					<linearGradient id="SVGID_36_" gradientUnits="userSpaceOnUse" x1="246.3406" y1="573.4673" x2="381.1606" y2="573.4673">
						<stop  offset="0" style="stop-color:#8EB0EC"/>
						<stop  offset="1" style="stop-color:#6386DB"/>
					</linearGradient>
					<path class="st36" d="M376.8,612.5l-130.4-75.8c1.4-0.6,2.9-1.3,4.4-2.2l130.4,75.8C379.7,611.1,378.2,611.9,376.8,612.5"/>
				</g>
			</g>
			<g class="st4">
				<defs>
					<path id="SVGID_37_" class="st4" d="M358.9,612.5l-130.4-75.8c-5.6-3.3-9.1-10.2-9.2-20.1l130.4,75.8
						C349.7,602.2,353.2,609.2,358.9,612.5z"/>
				</defs>
				<linearGradient id="SVGID_38_" gradientUnits="userSpaceOnUse" x1="219.2858" y1="564.4921" x2="358.8698" y2="564.4921">
					<stop  offset="0" style="stop-color:#8EB0EC"/>
					<stop  offset="1" style="stop-color:#6386DB"/>
				</linearGradient>
				<use xlink:href="#SVGID_37_"  style="overflow:visible;fill:url(#SVGID_38_);"/>
				<clipPath id="SVGID_39_">
					<use xlink:href="#SVGID_37_"  style="overflow:visible;"/>
				</clipPath>
				<g class="st37">
					<linearGradient id="SVGID_40_" gradientUnits="userSpaceOnUse" x1="219.2858" y1="564.4921" x2="358.8698" y2="564.4921">
						<stop  offset="0" style="stop-color:#8EB0EC"/>
						<stop  offset="1" style="stop-color:#6386DB"/>
					</linearGradient>
					<path class="st38" d="M358.9,612.5l-130.4-75.8c-5.6-3.3-9.1-10.2-9.2-20.1l130.4,75.8C349.7,602.2,353.2,609.2,358.9,612.5"/>
				</g>
			</g>
			<g>
				<linearGradient id="SVGID_41_" gradientUnits="userSpaceOnUse" x1="218.889" y1="484.4415" x2="349.7179" y2="484.4415">
					<stop  offset="0" style="stop-color:#8EB0EC"/>
					<stop  offset="1" style="stop-color:#6386DB"/>
				</linearGradient>
				<polygon class="st39" points="349.7,592.3 219.3,516.5 218.9,376.6 349.3,452.4 				"/>
			</g>
			<linearGradient id="SVGID_42_" gradientUnits="userSpaceOnUse" x1="218.625" y1="411.9653" x2="697.7174" y2="411.9653">
				<stop  offset="0" style="stop-color:#8EB0EC"/>
				<stop  offset="1" style="stop-color:#6386DB"/>
			</linearGradient>
			<path class="st40" d="M680.6,132.3c0.7-0.3,1.5-0.5,2.2-0.8c0.5-0.1,0.9-0.3,1.4-0.4c0.4-0.1,0.9-0.2,1.3-0.3
				c0.6-0.1,1.1-0.2,1.7-0.3c0.3,0,0.6-0.1,0.9-0.1c0.7,0,1.4-0.1,2,0c0.1,0,0.3,0,0.4,0c0.8,0,1.6,0.1,2.3,0.3
				c0.2,0,0.4,0.1,0.6,0.1c0.6,0.1,1.2,0.3,1.7,0.5c0.2,0.1,0.4,0.1,0.5,0.2c0.7,0.3,1.4,0.6,2.1,1L567.3,56.8
				c-0.1,0-0.1-0.1-0.2-0.1c-0.5-0.3-1-0.5-1.6-0.8c-0.1,0-0.2-0.1-0.3-0.1c-0.2-0.1-0.4-0.1-0.5-0.2c-0.3-0.1-0.5-0.2-0.8-0.3
				c-0.3-0.1-0.6-0.1-0.9-0.2c-0.2,0-0.4-0.1-0.6-0.1c-0.1,0-0.2-0.1-0.3-0.1c-0.6-0.1-1.2-0.2-1.9-0.2c0,0-0.1,0-0.1,0
				c-0.1,0-0.3,0-0.4,0c-0.5,0-1,0-1.5,0c-0.2,0-0.3,0-0.5,0.1c-0.3,0-0.6,0.1-0.9,0.1c-0.3,0-0.6,0-0.9,0.1c-0.3,0-0.5,0.1-0.8,0.2
				c-0.4,0.1-0.9,0.2-1.3,0.3c-0.2,0.1-0.5,0.1-0.7,0.1c-0.2,0.1-0.5,0.2-0.7,0.2c-0.7,0.2-1.5,0.5-2.2,0.8
				c-0.3,0.1-0.5,0.2-0.8,0.3c-0.1,0.1-0.3,0.2-0.4,0.2c-1.3,0.6-2.6,1.2-3.9,2L249.9,229.3c-1.7,1-3.3,2.1-4.9,3.3
				c-0.3,0.2-0.5,0.4-0.8,0.6c-1.5,1.2-3,2.5-4.4,3.9c-0.1,0.1-0.2,0.2-0.4,0.3c-0.2,0.2-0.4,0.5-0.7,0.7c-0.7,0.7-1.4,1.5-2.1,2.2
				c-0.2,0.2-0.4,0.5-0.7,0.7c-0.2,0.2-0.3,0.4-0.5,0.6c-0.4,0.5-0.8,1-1.2,1.5c-0.3,0.3-0.5,0.6-0.8,1c-0.2,0.3-0.4,0.6-0.6,0.8
				c-0.3,0.4-0.6,0.8-0.9,1.2c-0.2,0.3-0.4,0.5-0.6,0.8c-0.3,0.5-0.6,1-1,1.4c-0.2,0.3-0.4,0.6-0.6,0.9c-0.1,0.1-0.2,0.2-0.2,0.4
				c-0.6,0.9-1.1,1.8-1.6,2.7c0,0.1-0.1,0.1-0.1,0.2c-0.1,0.2-0.2,0.4-0.3,0.6c-0.4,0.6-0.7,1.2-1,1.9c-0.2,0.3-0.3,0.6-0.5,0.9
				c-0.2,0.3-0.3,0.6-0.5,0.9c-0.1,0.3-0.3,0.5-0.4,0.8c-0.4,0.7-0.7,1.5-1,2.2c-0.1,0.1-0.1,0.3-0.2,0.4c0,0,0,0.1,0,0.1
				c-0.4,0.9-0.8,1.9-1.2,2.8c-0.1,0.2-0.1,0.4-0.2,0.5c-0.1,0.3-0.2,0.7-0.4,1c-0.2,0.5-0.3,0.9-0.5,1.4c-0.1,0.4-0.2,0.7-0.3,1.1
				c-0.1,0.4-0.3,0.9-0.4,1.3c-0.1,0.3-0.2,0.5-0.2,0.8c-0.1,0.5-0.2,1-0.4,1.4c-0.1,0.5-0.3,1.1-0.4,1.6c0,0.2-0.1,0.4-0.1,0.6
				c-0.1,0.4-0.1,0.8-0.2,1.2c-0.2,0.8-0.3,1.7-0.4,2.5c0,0.2-0.1,0.5-0.1,0.7c0,0.2,0,0.4,0,0.6c-0.2,1.9-0.4,3.7-0.4,5.5l0.3,93.1
				l0.8,296.8c0,9.9,3.5,16.8,9.1,20.1l130.4,75.8c-5.6-3.3-9.1-10.2-9.1-20.1l-0.8-296.8l-0.3-93.1c0-1.8,0.1-3.6,0.4-5.5
				c0.1-0.4,0.1-0.9,0.2-1.3c0.1-0.8,0.3-1.7,0.4-2.5c0.1-0.6,0.2-1.1,0.3-1.7c0.1-0.5,0.3-1.1,0.4-1.6c0.2-0.7,0.4-1.5,0.6-2.2
				c0.1-0.4,0.3-0.9,0.4-1.3c0.3-0.8,0.5-1.7,0.8-2.5c0.1-0.3,0.2-0.7,0.4-1c0.4-1.2,0.9-2.3,1.4-3.4c0.1-0.1,0.1-0.3,0.2-0.4
				c0.5-1,0.9-2,1.4-3c0.2-0.3,0.3-0.6,0.5-0.9c0.5-0.9,1-1.9,1.5-2.8c0.1-0.2,0.2-0.4,0.3-0.6c0.6-1.1,1.3-2.2,2-3.2
				c0.2-0.3,0.4-0.6,0.6-0.9c0.5-0.8,1-1.5,1.6-2.2c0.3-0.4,0.6-0.8,0.9-1.2c0.5-0.6,0.9-1.2,1.4-1.8c0.4-0.5,0.8-1,1.2-1.5
				c0.4-0.5,0.8-0.9,1.2-1.4c0.7-0.8,1.4-1.5,2.1-2.2c0.3-0.4,0.7-0.7,1-1c1.4-1.4,2.9-2.7,4.4-3.9c0.3-0.2,0.5-0.4,0.8-0.6
				c1.6-1.2,3.2-2.3,4.9-3.3l295.1-170.4c1.3-0.8,2.6-1.4,3.9-2C679.8,132.6,680.2,132.4,680.6,132.3z"/>
			<linearGradient id="SVGID_43_" gradientUnits="userSpaceOnUse" x1="349.0569" y1="450.9177" x2="818.5806" y2="450.9177">
				<stop  offset="0" style="stop-color:#8EB0EC"/>
				<stop  offset="1" style="stop-color:#6386DB"/>
			</linearGradient>
			<path class="st41" d="M817.7,181.9c-0.1-19.9-14.1-28-31.4-18L707,209.7l-0.2-57.1c-0.1-19.9-14.2-27.9-31.4-17.9L380.3,305.1
				c-17.3,10-31.3,34.2-31.2,54.1l0.3,93.1l0.4,140v0l0.4,156.9c0.1,19.9,14.1,27.9,31.4,17.9l405.7-234.3
				c17.3-10,31.3-34.2,31.2-54.1L817.7,181.9z"/>
		</g>
	</g>
	<g>
		<g>
			<g class="st4">
				<linearGradient id="SVGID_44_" gradientUnits="userSpaceOnUse" x1="508.4077" y1="488.2833" x2="848.1859" y2="488.2833">
					<stop  offset="0" style="stop-color:#D7D8D5"/>
					<stop  offset="1" style="stop-color:#E2E3DA"/>
				</linearGradient>
				<path class="st42" d="M834.5,202.3c0.6-0.2,1.2-0.4,1.8-0.6c0.4-0.1,0.7-0.2,1.1-0.3c0.3-0.1,0.7-0.2,1-0.2
					c0.4-0.1,0.9-0.2,1.3-0.2c0.3,0,0.5-0.1,0.8-0.1c0.5,0,1.1,0,1.6,0c0.1,0,0.2,0,0.4,0c0.6,0,1.3,0.1,1.9,0.2
					c0.1,0,0.3,0.1,0.4,0.1c0.5,0.1,0.9,0.2,1.4,0.4c0.1,0.1,0.3,0.1,0.4,0.2c0.6,0.2,1.1,0.5,1.6,0.8l-46.2-26.9
					c0,0-0.1-0.1-0.1-0.1c-0.4-0.2-0.8-0.4-1.3-0.6c-0.1,0-0.2-0.1-0.2-0.1c-0.1-0.1-0.3-0.1-0.4-0.1c-0.2-0.1-0.4-0.2-0.7-0.2
					c-0.2-0.1-0.5-0.1-0.7-0.2c-0.1,0-0.3-0.1-0.4-0.1c-0.1,0-0.2,0-0.2-0.1c-0.5-0.1-1-0.1-1.5-0.2c0,0-0.1,0-0.1,0
					c-0.1,0-0.2,0-0.4,0c-0.4,0-0.8,0-1.2,0c-0.1,0-0.3,0-0.4,0c-0.2,0-0.5,0-0.8,0.1c-0.2,0-0.5,0-0.7,0.1c-0.2,0-0.4,0.1-0.6,0.1
					c-0.3,0.1-0.7,0.1-1,0.2c-0.2,0-0.4,0.1-0.6,0.1c-0.2,0-0.4,0.1-0.6,0.2c-0.6,0.2-1.2,0.4-1.8,0.6c-0.2,0.1-0.4,0.1-0.6,0.2
					c-0.1,0-0.2,0.1-0.4,0.2c-1,0.4-2.1,1-3.2,1.6L533.4,322.1c-1.3,0.8-2.6,1.7-3.9,2.6c-0.2,0.2-0.4,0.3-0.6,0.5
					c-1.2,1-2.4,2-3.5,3.1c-0.1,0.1-0.2,0.2-0.3,0.3c-0.2,0.2-0.4,0.4-0.5,0.6c-0.6,0.6-1.1,1.2-1.7,1.8c-0.2,0.2-0.4,0.4-0.5,0.6
					c-0.1,0.2-0.3,0.3-0.4,0.5c-0.3,0.4-0.7,0.8-1,1.2c-0.2,0.3-0.4,0.5-0.6,0.8c-0.2,0.2-0.3,0.4-0.5,0.7c-0.2,0.3-0.5,0.6-0.7,0.9
					c-0.2,0.2-0.3,0.4-0.5,0.6c-0.3,0.4-0.5,0.8-0.8,1.1c-0.2,0.2-0.3,0.5-0.5,0.7c-0.1,0.1-0.1,0.2-0.2,0.3
					c-0.4,0.7-0.9,1.4-1.3,2.1c0,0-0.1,0.1-0.1,0.1c-0.1,0.1-0.2,0.3-0.2,0.4c-0.3,0.5-0.6,1-0.9,1.5c-0.1,0.2-0.2,0.5-0.4,0.7
					c-0.1,0.2-0.3,0.5-0.4,0.7c-0.1,0.2-0.2,0.4-0.3,0.7c-0.3,0.6-0.6,1.2-0.8,1.8c0,0.1-0.1,0.2-0.1,0.3c0,0,0,0.1,0,0.1
					c-0.3,0.7-0.6,1.5-0.9,2.2c-0.1,0.1-0.1,0.3-0.1,0.4c-0.1,0.3-0.2,0.6-0.3,0.8c-0.1,0.4-0.3,0.7-0.4,1.1
					c-0.1,0.3-0.2,0.6-0.3,0.9c-0.1,0.3-0.2,0.7-0.3,1c-0.1,0.2-0.1,0.4-0.2,0.6c-0.1,0.4-0.2,0.8-0.3,1.2c-0.1,0.4-0.2,0.8-0.3,1.3
					c0,0.1-0.1,0.3-0.1,0.5c-0.1,0.3-0.1,0.6-0.2,0.9c-0.1,0.7-0.2,1.3-0.3,2c0,0.2-0.1,0.4-0.1,0.6c0,0.2,0,0.3,0,0.5
					c-0.2,1.5-0.3,3-0.3,4.4l1.1,394.3c0,7.9,2.8,13.5,7.3,16.1l46.2,26.9c-4.5-2.6-7.3-8.2-7.3-16.1l-1.1-394.3
					c0-1.4,0.1-2.9,0.3-4.4c0-0.4,0.1-0.7,0.1-1.1c0.1-0.7,0.2-1.3,0.3-2c0.1-0.5,0.2-0.9,0.3-1.4c0.1-0.4,0.2-0.9,0.3-1.3
					c0.2-0.6,0.3-1.2,0.5-1.8c0.1-0.3,0.2-0.7,0.3-1c0.2-0.7,0.4-1.3,0.7-2c0.1-0.3,0.2-0.6,0.3-0.8c0.3-0.9,0.7-1.8,1.1-2.8
					c0-0.1,0.1-0.2,0.1-0.3c0.4-0.8,0.7-1.6,1.1-2.4c0.1-0.3,0.3-0.5,0.4-0.8c0.4-0.8,0.8-1.5,1.2-2.3c0.1-0.1,0.2-0.3,0.2-0.4
					c0.5-0.9,1-1.7,1.6-2.6c0.2-0.2,0.3-0.5,0.5-0.7c0.4-0.6,0.8-1.2,1.2-1.8c0.2-0.3,0.5-0.6,0.7-0.9c0.4-0.5,0.7-1,1.1-1.4
					c0.3-0.4,0.6-0.8,1-1.2c0.3-0.4,0.6-0.7,1-1.1c0.5-0.6,1.1-1.2,1.7-1.8c0.3-0.3,0.6-0.6,0.8-0.8c1.1-1.1,2.3-2.1,3.5-3.1
					c0.2-0.2,0.4-0.3,0.7-0.5c1.3-1,2.6-1.9,3.9-2.6l250.7-144.7c1.1-0.6,2.1-1.1,3.2-1.6C833.8,202.5,834.1,202.4,834.5,202.3z"/>
				<g>
					<g>
						<linearGradient id="SVGID_45_" gradientUnits="userSpaceOnUse" x1="554.6473" y1="502.5616" x2="856.6191" y2="502.5616">
							<stop  offset="0" style="stop-color:#FBFBFB"/>
							<stop  offset="1" style="stop-color:#FBFBFB"/>
						</linearGradient>
						<path class="st43" d="M830.3,204.2c13.9-8,25.1-1.6,25.2,14.3l1.1,394.3c0,15.9-11.1,35.3-25,43.3L580.9,800.9
							c-13.9,8-25.1,1.6-25.2-14.3l-1.1-394.3c0-15.9,11.1-35.3,25-43.3L830.3,204.2z"/>
					</g>
				</g>
			</g>
		</g>
	</g>
	<g>
		<g>
			<linearGradient id="SVGID_46_" gradientUnits="userSpaceOnUse" x1="593.3514" y1="384.175" x2="824.0632" y2="384.175">
				<stop  offset="0" style="stop-color:#D1D1E4"/>
				<stop  offset="1" style="stop-color:#EBE1EE"/>
			</linearGradient>
			<path class="st44" d="M809.1,309.1c8.2-4.8,14.9-0.9,14.9,8.5c0,9.5-6.6,20.9-14.8,25.7l-200.9,116c-8.2,4.8-14.9,1-14.9-8.5
				c0-9.4,6.6-20.9,14.8-25.7L809.1,309.1z"/>
		</g>
	</g>
	<g>
		<g>
			<g>
				<defs>
					<path id="SVGID_47_" d="M809.1,389.4c8.2-4.8,14.9-1,14.9,8.5c0,9.4-6.6,20.9-14.8,25.7l-200.9,116c-8.2,4.8-14.9,0.9-14.9-8.5
						c0-9.5,6.6-20.9,14.8-25.7L809.1,389.4z"/>
				</defs>
				<clipPath id="SVGID_48_">
					<use xlink:href="#SVGID_47_"  style="overflow:visible;"/>
				</clipPath>
			</g>
		</g>
		<g>
			<linearGradient id="SVGID_49_" gradientUnits="userSpaceOnUse" x1="593.3514" y1="464.4908" x2="824.0632" y2="464.4908">
				<stop  offset="0" style="stop-color:#D1D1E4"/>
				<stop  offset="1" style="stop-color:#EBE1EE"/>
			</linearGradient>
			<path class="st45" d="M809.1,389.4c8.2-4.8,14.9-1,14.9,8.5c0,9.4-6.6,20.9-14.8,25.7l-200.9,116c-8.2,4.8-14.9,0.9-14.9-8.5
				c0-9.5,6.6-20.9,14.8-25.7L809.1,389.4z"/>
			<g class="st4">
				<defs>
					<path id="SVGID_50_" class="st4" d="M809.1,389.4c8.2-4.8,14.9-1,14.9,8.5c0,9.4-6.6,20.9-14.8,25.7l-200.9,116
						c-8.2,4.8-14.9,0.9-14.9-8.5c0-9.5,6.6-20.9,14.8-25.7L809.1,389.4z"/>
				</defs>
				<linearGradient id="SVGID_51_" gradientUnits="userSpaceOnUse" x1="593.3514" y1="464.4908" x2="824.0632" y2="464.4908">
					<stop  offset="0" style="stop-color:#D1D1E4"/>
					<stop  offset="1" style="stop-color:#EBE1EE"/>
				</linearGradient>
				<use xlink:href="#SVGID_50_"  style="overflow:visible;fill:url(#SVGID_51_);"/>
				<clipPath id="SVGID_52_">
					<use xlink:href="#SVGID_50_"  style="overflow:visible;"/>
				</clipPath>
			</g>
		</g>
		<g>
			<g>
				<defs>
					<path id="SVGID_53_" d="M809.1,389.4c8.2-4.8,14.9-1,14.9,8.5c0,9.4-6.6,20.9-14.8,25.7l-200.9,116c-8.2,4.8-14.9,0.9-14.9-8.5
						c0-9.5,6.6-20.9,14.8-25.7L809.1,389.4z"/>
				</defs>
				<clipPath id="SVGID_54_">
					<use xlink:href="#SVGID_53_"  style="overflow:visible;"/>
				</clipPath>
			</g>
		</g>
	</g>
	<g>
		<g>
			<linearGradient id="SVGID_55_" gradientUnits="userSpaceOnUse" x1="593.3514" y1="547.9499" x2="824.0632" y2="547.9499">
				<stop  offset="0" style="stop-color:#D1D1E4"/>
				<stop  offset="1" style="stop-color:#EBE1EE"/>
			</linearGradient>
			<path class="st46" d="M809.1,472.8c8.2-4.8,14.9-1,14.9,8.5c0,9.4-6.6,20.9-14.8,25.7l-200.9,116c-8.2,4.8-14.9,0.9-14.9-8.5
				c0-9.5,6.6-20.9,14.8-25.7L809.1,472.8z"/>
		</g>
	</g>
	<g>
		<g>
			<linearGradient id="SVGID_56_" gradientUnits="userSpaceOnUse" x1="593.3514" y1="631.4144" x2="824.0632" y2="631.4144">
				<stop  offset="0" style="stop-color:#D1D1E4"/>
				<stop  offset="1" style="stop-color:#EBE1EE"/>
			</linearGradient>
			<path class="st47" d="M809.1,556.3c8.2-4.8,14.9-0.9,14.9,8.5c0,9.5-6.6,20.9-14.8,25.7l-200.9,116c-8.2,4.8-14.9,1-14.9-8.5
				c0-9.4,6.6-20.9,14.8-25.7L809.1,556.3z"/>
		</g>
	</g>
</g>
</svg>
