<?xml version="1.0" encoding="utf-8"?>
<!-- Generator: Adobe Illustrator 21.0.0, SVG Export Plug-In . SVG Version: 6.00 Build 0)  -->
<svg version="1.1" id="图层_1" xmlns="http://www.w3.org/2000/svg" xmlns:xlink="http://www.w3.org/1999/xlink" x="0px" y="0px"
	 viewBox="0 0 1024 1024" style="enable-background:new 0 0 1024 1024;" xml:space="preserve">
<style type="text/css">
	.st0{display:none;}
	.st1{display:inline;}
	.st2{opacity:0.25;}
	.st3{display:inline;opacity:0.25;}
	.st4{enable-background:new    ;}
	.st5{fill:url(#SVGID_1_);}
	.st6{fill:url(#SVGID_2_);}
	.st7{fill:url(#SVGID_3_);}
	.st8{fill:url(#SVGID_4_);}
	.st9{fill:url(#SVGID_5_);}
	.st10{fill:url(#SVGID_6_);}
	.st11{fill:url(#SVGID_7_);}
	.st12{fill:url(#SVGID_8_);}
	.st13{fill:url(#SVGID_9_);}
	.st14{fill:url(#SVGID_10_);}
	.st15{fill:url(#SVGID_11_);}
	.st16{clip-path:url(#SVGID_14_);fill:url(#SVGID_15_);}
	.st17{fill:url(#SVGID_16_);}
</style>
<g id="图层_1_1_" class="st0">
	<g id="bg" class="st1">
		<g id="图层_2">
			<g id="图标参考线">
				<g id="图标尺寸" class="st2">
					<path d="M1018.2,5.8v1012.5H5.8V5.8H1018.2 M1024,0H0v1024h1024V0z"/>
					<path d="M512,28.8c266.9,0,483.2,216.4,483.2,483.2S778.9,995.2,512,995.2S28.8,778.9,28.8,512S245.1,28.8,512,28.8 M512,23
						C241.9,23,23,241.9,23,512s218.9,489,489,489s489-218.9,489-489C1000.7,242,782,23.3,512,23z"/>
					<path d="M949.2,74.8v874.4H74.8V74.8H949.2 M955,69H69v886h886V69z"/>
					<path d="M995.2,28.8v966.5H28.8V28.8H995.2 M1001,23H23v978h978V23z"/>
					<path d="M995.2,189.8v644.3H28.8V189.8H995.2 M1001,184.1H23v655.8h978V184.1z"/>
				</g>
			</g>
		</g>
	</g>
	<g id="图标尺寸_1_" class="st3">
		<g>
			<path d="M1017.1,4.6v1010.2H6.9V4.6H1017.1 M1021.7,0h-6.9H4.6H0v6.9v1010.2v6.9h6.9h1010.2h6.9v-6.9V6.9V0H1021.7z"/>
		</g>
		<g>
			<path d="M512,27.6c266.3,0,482.2,215.8,482.2,482.2S778.3,991.9,512,991.9S29.8,776.1,29.8,509.7S245.7,27.6,512,27.6 M512,23
				C243.4,23,23,241.1,23,509.7s218.1,486.7,489,486.7s489-218.1,489-486.7S780.6,23,512,23L512,23z"/>
		</g>
		<g>
			<path d="M948.2,73.5V946H75.8V73.5H948.2 M952.8,68.9h-6.9H73.5h-4.6v6.9v872.5v6.9h6.9h872.5h6.9v-6.9V75.8v-6.9H952.8z"/>
		</g>
		<g>
			<path d="M994.1,27.6v964.3H29.8V27.6H994.1 M998.7,23h-6.9H27.5h-4.6v6.9v964.3v6.9h6.9h964.3h6.9v-6.9V29.9V23H998.7z"/>
		</g>
		<g>
			<path d="M994.1,188.3v642.9H29.8V188.3H994.1 M998.7,183.7h-6.9H27.5h-4.6v4.6v642.9v6.9h6.9h964.3h6.9v-6.9V188.3v-4.6H998.7z"
				/>
		</g>
	</g>
</g>
<g>
	<g class="st4">
		<linearGradient id="SVGID_1_" gradientUnits="userSpaceOnUse" x1="71.457" y1="861.8142" x2="943.5691" y2="861.8142">
			<stop  offset="0" style="stop-color:#F6F6F9"/>
			<stop  offset="1" style="stop-color:#D7D8D5"/>
		</linearGradient>
		<path class="st5" d="M943.5,708.9c0,0.5-0.1,1-0.2,1.4c-0.1,0.4-0.2,0.8-0.3,1.2c-0.1,0.5-0.2,0.9-0.4,1.4
			c-0.1,0.4-0.3,0.7-0.5,1.1c-0.2,0.5-0.4,1-0.7,1.4c-0.2,0.3-0.4,0.7-0.6,1c-0.3,0.5-0.7,1.1-1.1,1.6c-0.2,0.3-0.5,0.6-0.7,0.9
			c-0.6,0.7-1.2,1.4-1.9,2.1c-0.3,0.2-0.5,0.5-0.8,0.7c-0.4,0.4-0.9,0.8-1.4,1.2c-0.4,0.3-0.8,0.7-1.3,1c-0.5,0.4-1.1,0.7-1.6,1.1
			c-0.6,0.4-1.1,0.8-1.7,1.1L541.2,952.3c-1.4,0.8-2.8,1.5-4.3,2.2c-0.4,0.2-0.9,0.4-1.3,0.6c-1.2,0.5-2.4,0.9-3.6,1.4
			c-0.4,0.1-0.9,0.3-1.3,0.5c-0.8,0.2-1.6,0.5-2.3,0.7c-0.6,0.2-1.2,0.3-1.8,0.5c-0.8,0.2-1.7,0.4-2.5,0.5c-0.6,0.1-1.1,0.2-1.7,0.3
			c-1.7,0.3-3.4,0.5-5.2,0.7c-0.5,0.1-1.1,0.1-1.6,0.1c-1,0.1-2.1,0.2-3.1,0.2c-0.7,0-1.3,0-2,0.1c-0.8,0-1.7,0-2.5,0
			c-0.7,0-1.4,0-2.1-0.1c-0.8,0-1.5-0.1-2.3-0.1c-0.7,0-1.4-0.1-2.1-0.2c-0.8-0.1-1.5-0.2-2.3-0.3c-0.7-0.1-1.4-0.2-2-0.3
			c-0.8-0.1-1.6-0.3-2.4-0.4c-0.6-0.1-1.3-0.2-1.9-0.4c-1-0.2-1.9-0.4-2.8-0.7c-0.5-0.1-1-0.3-1.6-0.4c-1.7-0.5-3.3-1-4.9-1.7
			c-0.2-0.1-0.4-0.2-0.6-0.3c-2.2-0.9-4.2-1.8-6.2-3L85.1,726.1c-9-5.2-13.5-12-13.5-18.8l-0.2,56.4c0,6.8,4.5,13.6,13.5,18.8
			l391.7,226.1c1.9,1.1,4,2.1,6.2,3c0.1,0.1,0.3,0.1,0.4,0.2c0.1,0,0.2,0.1,0.2,0.1c1.6,0.6,3.2,1.2,4.9,1.7c0.1,0,0.3,0.1,0.4,0.1
			c0.4,0.1,0.8,0.2,1.2,0.3c0.9,0.2,1.9,0.5,2.8,0.7c0.3,0.1,0.5,0.1,0.8,0.2c0.4,0.1,0.8,0.1,1.1,0.2c0.8,0.2,1.6,0.3,2.4,0.4
			c0.3,0.1,0.6,0.1,1,0.2c0.3,0,0.7,0.1,1.1,0.1c0.8,0.1,1.5,0.2,2.3,0.3c0.4,0,0.7,0.1,1.1,0.1c0.3,0,0.7,0,1,0.1
			c0.8,0.1,1.5,0.1,2.3,0.1c0.4,0,0.8,0.1,1.2,0.1c0.3,0,0.6,0,0.9,0c0.8,0,1.7,0,2.5,0c0.4,0,0.8,0,1.3,0c0.2,0,0.5,0,0.7,0
			c1,0,2.1-0.1,3.1-0.2c0.4,0,0.8,0,1.2-0.1c0.1,0,0.2,0,0.4-0.1c1.7-0.2,3.5-0.4,5.2-0.7c0.1,0,0.2,0,0.3,0c0.5-0.1,1-0.2,1.5-0.3
			c0.8-0.2,1.7-0.3,2.5-0.5c0.6-0.1,1.2-0.3,1.8-0.5c0.8-0.2,1.6-0.4,2.3-0.7c0.2-0.1,0.3-0.1,0.5-0.1c0.3-0.1,0.5-0.2,0.8-0.3
			c1.2-0.4,2.4-0.9,3.6-1.4c0.4-0.2,0.9-0.4,1.3-0.6c1.5-0.7,2.9-1.4,4.3-2.2l389.1-226.1c0.2-0.1,0.4-0.2,0.6-0.3
			c0.4-0.3,0.8-0.5,1.2-0.8c0.6-0.4,1.1-0.7,1.6-1.1c0.5-0.3,0.9-0.7,1.3-1c0.5-0.4,1-0.8,1.4-1.2c0.1-0.1,0.2-0.2,0.3-0.2
			c0.2-0.2,0.3-0.3,0.5-0.5c0.7-0.7,1.3-1.4,1.9-2.1c0.1-0.2,0.3-0.3,0.4-0.5c0.1-0.2,0.2-0.3,0.3-0.5c0.4-0.5,0.7-1.1,1.1-1.6
			c0.1-0.2,0.3-0.4,0.4-0.7c0.1-0.1,0.1-0.2,0.2-0.3c0.3-0.5,0.5-0.9,0.7-1.4c0.1-0.3,0.3-0.5,0.4-0.8c0-0.1,0-0.2,0.1-0.3
			c0.2-0.5,0.3-0.9,0.4-1.4c0.1-0.3,0.2-0.6,0.3-0.9c0-0.1,0-0.2,0-0.2c0.1-0.5,0.1-1,0.2-1.4c0-0.3,0.1-0.6,0.1-0.9
			c0-0.1,0-0.3,0-0.4l0.2-56.4C943.6,708,943.5,708.5,943.5,708.9z"/>
		<g>
			<linearGradient id="SVGID_2_" gradientUnits="userSpaceOnUse" x1="71.6168" y1="707.4399" x2="943.5691" y2="707.4399">
				<stop  offset="0" style="stop-color:#D7D8D5"/>
				<stop  offset="1" style="stop-color:#F6F6F9"/>
			</linearGradient>
			<path class="st6" d="M930.1,688.8c17.8,10.3,18,27,0.2,37.3L541.2,952.3c-17.7,10.3-46.6,10.3-64.4,0L85.1,726.1
				c-17.8-10.3-18-27-0.2-37.3L474,462.6c17.8-10.3,46.6-10.3,64.4,0L930.1,688.8z"/>
		</g>
	</g>
</g>
<g>
	<g class="st4">
		<g>
			<linearGradient id="SVGID_3_" gradientUnits="userSpaceOnUse" x1="304.1501" y1="656.8017" x2="482.0132" y2="656.8017">
				<stop  offset="0" style="stop-color:#00AB7E"/>
				<stop  offset="1" style="stop-color:#00C692"/>
			</linearGradient>
			<polygon class="st7" points="482,720.1 360.6,649.5 304.2,593.5 425.5,664.1 			"/>
		</g>
		<linearGradient id="SVGID_4_" gradientUnits="userSpaceOnUse" x1="110.0676" y1="388.7601" x2="719.6442" y2="388.7601">
			<stop  offset="0" style="stop-color:#00AB7E"/>
			<stop  offset="1" style="stop-color:#00C692"/>
		</linearGradient>
		<path class="st8" d="M700.3,92.6c0.8-0.3,1.7-0.6,2.5-0.9c0.5-0.2,1.1-0.3,1.6-0.4c0.5-0.1,1-0.2,1.5-0.3c0.6-0.1,1.3-0.2,1.9-0.3
			c0.4,0,0.7-0.1,1.1-0.1c0.8-0.1,1.5-0.1,2.3,0c0.2,0,0.3,0,0.5,0c0.9,0.1,1.8,0.2,2.6,0.3c0.2,0,0.4,0.1,0.6,0.1
			c0.7,0.2,1.3,0.3,1.9,0.6c0.2,0.1,0.4,0.1,0.6,0.2c0.8,0.3,1.6,0.7,2.3,1.1L598.3,22.4c-0.1,0-0.1-0.1-0.2-0.1
			c-0.6-0.3-1.2-0.6-1.8-0.9c-0.1,0-0.2-0.1-0.3-0.1c-0.2-0.1-0.4-0.1-0.6-0.2c-0.3-0.1-0.6-0.2-0.9-0.3c-0.3-0.1-0.7-0.2-1-0.2
			c-0.2,0-0.4-0.1-0.6-0.1c-0.1,0-0.2-0.1-0.3-0.1c-0.7-0.1-1.4-0.2-2.1-0.3c0,0-0.1,0-0.1,0c-0.2,0-0.3,0-0.5,0c-0.6,0-1.1,0-1.7,0
			c-0.2,0-0.4,0-0.6,0.1c-0.4,0-0.7,0.1-1.1,0.1c-0.3,0-0.7,0-1,0.1c-0.3,0-0.6,0.1-0.9,0.2c-0.5,0.1-1,0.2-1.4,0.3
			c-0.3,0.1-0.5,0.1-0.8,0.2c-0.3,0.1-0.5,0.2-0.8,0.3c-0.8,0.2-1.7,0.5-2.5,0.9c-0.3,0.1-0.6,0.2-0.9,0.3c-0.2,0.1-0.3,0.2-0.5,0.3
			c-1.5,0.6-2.9,1.3-4.4,2.2L145.4,271.7c-1.1,0.7-2.3,1.4-3.4,2.1c-0.4,0.2-0.7,0.5-1.1,0.8c-0.7,0.5-1.5,1.1-2.2,1.7
			c-0.4,0.3-0.8,0.7-1.2,1c-0.7,0.6-1.3,1.1-2,1.7c-0.4,0.4-0.8,0.7-1.2,1.1c-0.2,0.2-0.5,0.5-0.7,0.7c-0.3,0.3-0.5,0.5-0.8,0.8
			c-0.8,0.8-1.6,1.7-2.4,2.5c-0.2,0.3-0.5,0.5-0.8,0.8c-0.2,0.2-0.4,0.5-0.6,0.7c-0.5,0.6-0.9,1.1-1.4,1.7c-0.3,0.4-0.6,0.7-0.9,1.1
			c-0.2,0.3-0.5,0.6-0.7,1c-0.3,0.4-0.7,0.9-1,1.3c-0.2,0.3-0.5,0.6-0.7,0.9c-0.4,0.5-0.7,1.1-1.1,1.6c-0.2,0.3-0.5,0.7-0.7,1
			c-0.1,0.1-0.2,0.3-0.3,0.4c-0.6,1-1.2,2-1.8,3c0,0.1-0.1,0.1-0.1,0.2c-0.1,0.2-0.2,0.4-0.3,0.6c-0.4,0.7-0.8,1.4-1.2,2.2
			c-0.2,0.3-0.3,0.7-0.5,1c-0.2,0.4-0.4,0.7-0.5,1.1c-0.2,0.3-0.3,0.6-0.5,0.9c-0.4,0.8-0.8,1.7-1.1,2.5c-0.1,0.2-0.1,0.3-0.2,0.5
			c0,0,0,0.1-0.1,0.1c-0.5,1.1-0.9,2.1-1.3,3.2c-0.1,0.2-0.1,0.4-0.2,0.6c-0.1,0.4-0.3,0.8-0.4,1.2c-0.2,0.5-0.4,1.1-0.6,1.6
			c-0.1,0.4-0.2,0.8-0.4,1.2c-0.2,0.5-0.3,1-0.4,1.5c-0.1,0.3-0.2,0.6-0.3,0.9c-0.2,0.5-0.3,1.1-0.4,1.6c-0.2,0.6-0.3,1.2-0.4,1.8
			c0,0.2-0.1,0.4-0.2,0.6c-0.1,0.4-0.1,0.9-0.2,1.3c-0.2,0.9-0.4,1.9-0.5,2.8c0,0.3-0.1,0.5-0.1,0.8c0,0.2,0,0.5,0,0.7
			c-0.2,2.1-0.4,4.2-0.4,6.2l0.9,331.3c0,11.2,4,19,10.3,22.7l121.4,70.5c-6.4-3.7-10.3-11.6-10.3-22.7l-0.9-331.3
			c0-2,0.2-4.1,0.4-6.2c0.1-0.5,0.1-1,0.2-1.5c0.1-0.9,0.3-1.9,0.5-2.8c0.1-0.6,0.2-1.3,0.4-1.9c0.1-0.6,0.3-1.2,0.4-1.8
			c0.2-0.8,0.4-1.7,0.7-2.5c0.1-0.5,0.3-1,0.4-1.5c0.3-0.9,0.6-1.9,1-2.8c0.1-0.4,0.3-0.8,0.4-1.2c0.5-1.3,1-2.6,1.6-3.9
			c0.1-0.2,0.1-0.3,0.2-0.5c0.5-1.1,1-2.3,1.6-3.4c0.2-0.4,0.4-0.7,0.5-1.1c0.5-1.1,1.1-2.1,1.7-3.2c0.1-0.2,0.2-0.4,0.4-0.6
			c0.7-1.2,1.5-2.4,2.2-3.6c0.2-0.3,0.5-0.7,0.7-1c0.6-0.9,1.2-1.7,1.8-2.5c0.3-0.4,0.7-0.9,1-1.3c0.5-0.7,1.1-1.4,1.6-2
			c0.5-0.6,0.9-1.1,1.4-1.7c0.4-0.5,0.9-1,1.4-1.5c0.8-0.9,1.6-1.7,2.4-2.5c0.5-0.5,1-1,1.5-1.5c0.4-0.4,0.8-0.8,1.2-1.1
			c0.7-0.6,1.3-1.2,2-1.7c0.4-0.3,0.8-0.7,1.2-1c0.7-0.6,1.5-1.1,2.2-1.7c0.4-0.3,0.7-0.5,1.1-0.8c1.1-0.8,2.2-1.5,3.4-2.1
			L694.4,95.4c1.5-0.9,3-1.6,4.5-2.2C699.3,93,699.8,92.8,700.3,92.6z"/>
		<g>
			<linearGradient id="SVGID_5_" gradientUnits="userSpaceOnUse" x1="231.4588" y1="425.2236" x2="730.9234" y2="425.2236">
				<stop  offset="0" style="stop-color:#00C692"/>
				<stop  offset="1" style="stop-color:#00AB7E"/>
			</linearGradient>
			<path class="st9" d="M694.4,95.4c19.6-11.3,35.5-2.2,35.6,20.3l0.9,331.3c0.1,22.5-15.8,49.9-35.3,61.2l-157.6,91l-56,120.9
				l-56.5-56l-157.6,91c-19.6,11.3-35.5,2.2-35.6-20.3l-0.9-331.3c-0.1-22.5,15.8-49.9,35.3-61.2L694.4,95.4z"/>
		</g>
	</g>
</g>
<g>
	<g>
		<linearGradient id="SVGID_6_" gradientUnits="userSpaceOnUse" x1="300.4832" y1="514.3927" x2="386.8133" y2="514.3927">
			<stop  offset="0" style="stop-color:#FBFBFB"/>
			<stop  offset="1" style="stop-color:#FBFBFB"/>
		</linearGradient>
		<path class="st10" d="M343.5,464.8c23.8-13.8,43.2-2.7,43.3,24.7c0.1,27.4-19.2,60.7-43,74.5c-23.8,13.8-43.2,2.7-43.3-24.7
			C300.4,511.9,319.7,478.6,343.5,464.8z"/>
	</g>
	<g>
		<linearGradient id="SVGID_7_" gradientUnits="userSpaceOnUse" x1="447.7236" y1="429.3962" x2="534.0536" y2="429.3962">
			<stop  offset="0" style="stop-color:#FBFBFB"/>
			<stop  offset="1" style="stop-color:#FBFBFB"/>
		</linearGradient>
		<path class="st11" d="M490.7,379.8c23.8-13.8,43.2-2.7,43.3,24.7c0.1,27.4-19.2,60.8-43,74.5c-23.8,13.8-43.2,2.7-43.3-24.7
			C447.6,426.9,466.9,393.6,490.7,379.8z"/>
	</g>
	<g>
		<linearGradient id="SVGID_8_" gradientUnits="userSpaceOnUse" x1="594.9362" y1="344.3903" x2="681.2661" y2="344.3903">
			<stop  offset="0" style="stop-color:#FBFBFB"/>
			<stop  offset="1" style="stop-color:#FBFBFB"/>
		</linearGradient>
		<path class="st12" d="M638,294.8c23.8-13.8,43.2-2.7,43.3,24.7c0.1,27.4-19.2,60.7-43,74.5c-23.8,13.8-43.2,2.7-43.3-24.7
			C594.9,341.9,614.1,308.5,638,294.8z"/>
	</g>
</g>
<g>
	<g class="st4">
		<linearGradient id="SVGID_9_" gradientUnits="userSpaceOnUse" x1="544.0679" y1="729.6133" x2="675.3701" y2="729.6133">
			<stop  offset="0" style="stop-color:#FFA21E"/>
			<stop  offset="1" style="stop-color:#FFCB27"/>
		</linearGradient>
		<path class="st13" d="M583.7,765.9c0.1-1.3,0.3-2.6,0.5-3.9c0.2-1.5,0.5-2.9,0.8-4.4c0.2-1,0.3-1.9,0.6-2.9
			c0.2-0.9,0.4-1.8,0.7-2.7c0.3-1.3,0.7-2.6,1-3.9c0.2-0.7,0.4-1.4,0.7-2.2c0.5-1.5,0.9-2.9,1.5-4.3c0.2-0.6,0.4-1.2,0.6-1.7
			c0.7-2,1.5-3.9,2.4-5.9c0.1-0.3,0.2-0.5,0.4-0.8c0.8-1.7,1.6-3.4,2.4-5.1c0.3-0.5,0.5-1,0.8-1.6c0.9-1.8,1.8-3.5,2.8-5.2
			c0.1-0.2,0.2-0.3,0.3-0.5c1.1-1.9,2.2-3.7,3.4-5.5c0.4-0.6,0.7-1.1,1.1-1.6c0.9-1.3,1.7-2.5,2.6-3.7c0.5-0.7,1-1.3,1.5-2
			c0.8-1,1.6-2.1,2.4-3.1c0.7-0.8,1.3-1.7,2-2.5c0.6-0.7,1.3-1.4,1.9-2.2c1.2-1.3,2.4-2.7,3.7-3.9c0.8-0.8,1.6-1.6,2.4-2.4
			c0.6-0.6,1.3-1.2,1.9-1.8c1-0.9,2-1.8,3-2.6c0.6-0.5,1.3-1.1,1.9-1.6c1.1-0.9,2.3-1.7,3.4-2.6c0.6-0.4,1.1-0.8,1.7-1.2
			c1.7-1.2,3.5-2.3,5.2-3.3c1.7-1,3.3-1.8,5-2.6c0.4-0.2,0.9-0.4,1.3-0.6c1.6-0.7,3.1-1.4,4.7-1.9c0,0,0,0,0,0
			c1.4-0.5,2.8-0.9,4.2-1.2c0.7-0.2,1.5-0.3,2.2-0.5c0.9-0.2,1.9-0.3,2.8-0.4c0.5-0.1,1.1-0.1,1.6-0.2c1.1-0.1,2.2-0.1,3.3-0.1
			c0.3,0,0.6,0,0.9,0c1.4,0.1,2.7,0.2,3.9,0.5c0.3,0.1,0.6,0.1,0.9,0.2c1,0.2,2,0.5,3,0.9c0.3,0.1,0.6,0.2,0.9,0.3
			c1.2,0.5,2.4,1,3.5,1.7l-39.2-22.8c-0.1-0.1-0.2-0.1-0.3-0.2c-0.9-0.5-1.7-0.9-2.7-1.3c-0.2-0.1-0.4-0.1-0.6-0.2
			c-0.3-0.1-0.6-0.2-0.9-0.3c-0.4-0.2-0.9-0.3-1.3-0.5c-0.5-0.2-1.1-0.3-1.6-0.4c-0.3-0.1-0.6-0.1-0.9-0.2c-0.2,0-0.3-0.1-0.4-0.1
			c-1-0.2-2.1-0.3-3.2-0.4c-0.1,0-0.2,0-0.3,0c-0.3,0-0.6,0-0.9,0c-0.8,0-1.5-0.1-2.3,0c-0.3,0-0.7,0.1-1,0.1
			c-0.5,0-1.1,0.1-1.6,0.2c-0.5,0.1-0.9,0.1-1.4,0.1c-0.5,0.1-1,0.2-1.4,0.3c-0.7,0.1-1.5,0.3-2.2,0.5c-0.4,0.1-0.7,0.1-1.1,0.2
			c-1,0.3-2.1,0.6-3.1,1c0,0,0,0,0,0c-1.1,0.4-2.1,0.8-3.2,1.2c-0.5,0.2-1,0.4-1.4,0.7c-0.4,0.2-0.9,0.4-1.3,0.6
			c-1.6,0.8-3.3,1.6-5,2.6c-1.8,1-3.5,2.1-5.2,3.3c-0.6,0.4-1.1,0.8-1.7,1.2c-1.1,0.8-2.3,1.7-3.4,2.6c-0.6,0.5-1.3,1-1.9,1.6
			c-1,0.9-2,1.7-3,2.6c-0.6,0.6-1.3,1.2-1.9,1.8c-0.4,0.4-0.9,0.8-1.3,1.2c-0.4,0.4-0.7,0.8-1,1.1c-1.3,1.3-2.5,2.6-3.7,3.9
			c-0.4,0.4-0.8,0.8-1.2,1.3c-0.2,0.3-0.5,0.6-0.7,0.9c-0.7,0.8-1.4,1.6-2,2.5c-0.5,0.6-1.1,1.3-1.6,1.9c-0.3,0.4-0.6,0.8-0.9,1.2
			c-0.5,0.7-1,1.3-1.5,2c-0.4,0.6-0.8,1.1-1.2,1.7c-0.5,0.7-0.9,1.4-1.4,2.1c-0.4,0.5-0.7,1.1-1.1,1.6c-0.2,0.3-0.4,0.6-0.6,0.9
			c-0.9,1.5-1.9,3-2.7,4.5c0,0,0,0.1-0.1,0.1c-0.1,0.2-0.2,0.3-0.3,0.5c-0.7,1.3-1.4,2.5-2.1,3.8c-0.2,0.5-0.5,0.9-0.7,1.4
			c-0.3,0.5-0.5,1-0.8,1.6c-0.3,0.5-0.5,1-0.8,1.5c-0.6,1.2-1.1,2.4-1.6,3.6c-0.1,0.3-0.2,0.5-0.3,0.8c0,0.1-0.1,0.2-0.1,0.2
			c-0.7,1.6-1.3,3.2-1.9,4.7c-0.1,0.3-0.2,0.6-0.3,0.9c-0.2,0.6-0.4,1.1-0.6,1.7c-0.3,0.8-0.6,1.6-0.9,2.4c-0.2,0.6-0.4,1.3-0.6,2
			c-0.2,0.7-0.5,1.4-0.7,2.2c-0.1,0.4-0.3,0.9-0.4,1.3c-0.2,0.9-0.4,1.7-0.6,2.6c-0.2,0.9-0.5,1.8-0.7,2.7c-0.1,0.3-0.2,0.6-0.2,0.9
			c-0.1,0.7-0.2,1.3-0.3,2c-0.3,1.5-0.5,2.9-0.8,4.4c-0.1,0.4-0.1,0.8-0.2,1.1c-0.1,0.9-0.2,1.8-0.3,2.8c-0.1,0.6-0.1,1.3-0.2,1.9
			c-0.1,2-0.2,4-0.2,6c0,17,6.1,29,15.8,34.6l39.2,22.8c-9.7-5.6-15.7-17.6-15.8-34.6c0-2,0.1-4,0.2-6
			C583.6,767.2,583.7,766.6,583.7,765.9z"/>
		<g>
			<linearGradient id="SVGID_10_" gradientUnits="userSpaceOnUse" x1="583.3066" y1="742.8346" x2="691.0329" y2="742.8346">
				<stop  offset="0" style="stop-color:#FFCB27"/>
				<stop  offset="1" style="stop-color:#FFA21E"/>
			</linearGradient>
			<path class="st14" d="M637.2,681c30.1-17.4,53.8-3.5,53.9,31.1c0.1,33.8-24.1,75.7-53.5,92.7c-29.8,17.2-54.1,3.3-54.2-30.9
				C583.2,739.3,607.1,698.4,637.2,681z"/>
		</g>
	</g>
	<g class="st4">
		<linearGradient id="SVGID_11_" gradientUnits="userSpaceOnUse" x1="552.6951" y1="550.655" x2="689.1641" y2="550.655">
			<stop  offset="0" style="stop-color:#FFA21E"/>
			<stop  offset="1" style="stop-color:#FFCB27"/>
		</linearGradient>
		<path class="st15" d="M689.2,465.5c0-0.6,0-1.2-0.1-1.9c0-0.5,0-1.1-0.1-1.6c-0.1-0.6-0.2-1.2-0.3-1.8c-0.1-0.5-0.1-1-0.2-1.5
			c-0.1-0.6-0.3-1.1-0.5-1.7c-0.1-0.4-0.2-0.9-0.4-1.3c-0.2-0.5-0.5-1-0.7-1.6c-0.2-0.4-0.3-0.8-0.6-1.2c-0.3-0.5-0.6-1-1-1.5
			c-0.2-0.3-0.4-0.7-0.7-1c-0.4-0.5-0.9-1-1.3-1.4c-0.3-0.3-0.5-0.5-0.7-0.8c-0.7-0.7-1.6-1.3-2.4-1.9c-0.3-0.2-0.6-0.4-0.8-0.5
			l-39.2-22.8c0.3,0.2,0.6,0.3,0.8,0.5c0.9,0.6,1.7,1.2,2.4,1.9c0.3,0.2,0.5,0.5,0.7,0.8c0.5,0.5,0.9,0.9,1.3,1.4
			c0.3,0.3,0.4,0.7,0.7,1c0.3,0.5,0.7,1,1,1.5c0.2,0.4,0.4,0.8,0.6,1.2c0.2,0.5,0.5,1,0.7,1.6c0.2,0.4,0.3,0.9,0.4,1.3
			c0.2,0.6,0.4,1.1,0.5,1.7c0.1,0.5,0.2,1,0.2,1.5c0.1,0.6,0.2,1.2,0.3,1.8c0,0.5,0,1.1,0.1,1.6c0,0.6,0.1,1.2,0.1,1.9
			c0,0.6-0.1,1.1-0.1,1.7c0,0.6-0.1,1.3-0.2,1.9c-0.1,0.9-0.3,1.8-0.4,2.7c-0.1,0.3-0.1,0.6-0.2,1c-0.2,1.2-0.6,2.4-0.9,3.6
			c-0.1,0.3-0.2,0.6-0.3,0.8c-0.3,1-0.6,2-1,3.1c-0.1,0.2-0.2,0.5-0.2,0.7c-0.5,1.2-1,2.4-1.5,3.7c-0.1,0.3-0.3,0.6-0.4,0.9
			c-0.5,1.1-1,2.2-1.6,3.3c-0.1,0.3-0.3,0.5-0.4,0.8c-0.7,1.3-1.4,2.6-2.2,3.9c-0.2,0.4-0.5,0.7-0.7,1.1c-0.6,1-1.2,1.9-1.8,2.9
			c-0.4,0.6-0.8,1.2-1.2,1.8c-0.8,1.2-1.6,2.3-2.5,3.5c-2.5,3.4-5,6.7-7.5,10c-0.7,0.9-1.4,1.8-2.1,2.6c-2.5,3.2-4.9,6.3-7.4,9.4
			c-3.6,4.5-7.2,8.9-10.8,13.4c-2.5,3.1-5,6.3-7.4,9.5c-0.2,0.3-0.5,0.6-0.7,0.9c-0.7,0.9-1.4,1.8-2.1,2.8c-2,2.6-4,5.2-5.9,7.9
			c-0.9,1.2-1.7,2.4-2.6,3.6c-0.7,1-1.4,1.9-2.1,2.9c-1,1.4-1.9,2.9-2.9,4.4c-1.1,1.5-2.1,3.1-3.1,4.7c-0.4,0.6-0.8,1.2-1.2,1.8
			c-1.8,2.8-3.6,5.7-5.3,8.6c-0.2,0.3-0.4,0.6-0.5,0.9c-0.9,1.6-1.7,3.1-2.6,4.6c-0.1,0.1-0.1,0.2-0.2,0.4c-0.8,1.6-1.6,3.1-2.4,4.7
			c-0.1,0.3-0.3,0.6-0.4,0.9c0,0,0,0,0,0.1c-0.9,1.9-1.7,3.7-2.5,5.5c0,0.1-0.1,0.1-0.1,0.2c-0.2,0.4-0.3,0.9-0.5,1.3
			c-0.6,1.4-1.1,2.7-1.7,4.1c-0.1,0.2-0.1,0.3-0.2,0.5c-0.2,0.5-0.3,0.9-0.5,1.4c-0.5,1.3-1,2.6-1.4,3.9c-0.1,0.3-0.2,0.6-0.3,0.9
			c-0.1,0.4-0.2,0.7-0.3,1.1c-0.5,1.6-1,3.1-1.4,4.7c-0.1,0.4-0.2,0.7-0.3,1.1c0,0.1-0.1,0.3-0.1,0.4c-0.6,2.4-1.2,4.7-1.7,7.1
			c0,0.2-0.1,0.4-0.2,0.6c-0.1,0.4-0.2,0.9-0.3,1.3c-0.2,1-0.4,2.1-0.6,3.1c-0.1,0.7-0.3,1.5-0.4,2.2c-0.2,1-0.3,2.1-0.5,3.1
			c-0.1,0.4-0.1,0.9-0.2,1.3c0,0.2,0,0.5-0.1,0.7c-0.2,1.9-0.4,3.7-0.6,5.6c0,0.1,0,0.2,0,0.3c-0.2,2-0.3,3.9-0.4,5.8
			c0,0.6,0,1.1-0.1,1.7c0,1.4-0.1,2.9-0.1,4.3c0,0.6,0,1.1,0,1.7c0,1.9,0,3.8,0.1,5.8c0.3,6.1,2,10.1,4.9,11.7l39.2,22.8
			c-2.9-1.7-4.5-5.7-4.9-11.7c-0.1-1.9-0.1-3.8-0.1-5.8c0-0.6,0-1.1,0-1.7c0-1.4,0-2.9,0.1-4.3c0-0.6,0-1.1,0.1-1.7
			c0.1-1.9,0.2-3.9,0.4-5.8c0-0.1,0-0.2,0-0.3c0.2-1.8,0.4-3.7,0.6-5.5c0.1-0.7,0.2-1.4,0.3-2c0.1-1,0.3-2.1,0.5-3.1
			c0.1-0.7,0.2-1.5,0.4-2.2c0.2-1,0.4-2.1,0.6-3.1c0.1-0.7,0.3-1.3,0.4-2c0.5-2.3,1.1-4.7,1.7-7.1c0.1-0.5,0.3-1,0.4-1.5
			c0.4-1.6,0.9-3.1,1.4-4.7c0.2-0.7,0.4-1.3,0.6-2c0.4-1.3,0.9-2.6,1.4-3.9c0.2-0.6,0.5-1.3,0.7-1.9c0.5-1.4,1.1-2.7,1.7-4.1
			c0.2-0.5,0.4-1,0.6-1.5c0.8-1.8,1.6-3.7,2.5-5.5c0.1-0.3,0.3-0.6,0.5-0.9c0.8-1.6,1.5-3.1,2.4-4.7c0.9-1.7,1.8-3.3,2.7-5
			c2.2-3.9,4.6-7.6,7-11.3c1-1.6,2.1-3.1,3.1-4.7c1.6-2.4,3.3-4.9,5-7.2c0.9-1.2,1.7-2.4,2.6-3.6c2-2.7,3.9-5.3,5.9-7.9
			c0.7-0.9,1.4-1.8,2.1-2.8c2.7-3.5,5.4-7,8.1-10.4c3.6-4.5,7.2-9,10.8-13.5c2.5-3.1,4.9-6.2,7.4-9.3c0.6-0.7,1.1-1.4,1.7-2.1
			c0.1-0.2,0.3-0.4,0.4-0.5c2.5-3.3,5-6.6,7.5-9.9c0.5-0.7,1-1.4,1.5-2.1c0.3-0.5,0.6-0.9,0.9-1.4c0.4-0.6,0.8-1.2,1.2-1.8
			c0.2-0.3,0.4-0.6,0.6-0.9c0.4-0.7,0.8-1.4,1.3-2.1c0.2-0.4,0.5-0.7,0.7-1.1c0.1-0.1,0.2-0.2,0.2-0.4c0.6-1.1,1.2-2.1,1.8-3.2
			c0.1-0.1,0.1-0.2,0.2-0.3c0.1-0.3,0.3-0.5,0.4-0.8c0.3-0.6,0.6-1.2,0.9-1.9c0.2-0.5,0.4-0.9,0.6-1.4c0.1-0.3,0.3-0.6,0.4-0.9
			c0.1-0.2,0.2-0.4,0.3-0.6c0.4-0.9,0.8-1.8,1.1-2.7c0-0.1,0.1-0.2,0.1-0.4c0.1-0.2,0.2-0.5,0.2-0.7c0.2-0.5,0.4-1.1,0.6-1.6
			c0.2-0.5,0.3-1,0.4-1.4c0.1-0.3,0.2-0.6,0.3-0.8c0-0.2,0.1-0.3,0.2-0.5c0.3-1,0.5-2,0.7-3c0,0,0-0.1,0-0.1c0.1-0.3,0.1-0.6,0.2-1
			c0.2-0.8,0.3-1.6,0.4-2.4c0-0.1,0-0.1,0-0.2c0.1-0.7,0.1-1.3,0.2-1.9C689.1,466.7,689.1,466.1,689.2,465.5z"/>
		<g class="st4">
			<defs>
				<path id="SVGID_12_" class="st4" d="M516.7,536.2l-39.2-22.8c-5.5-3.2-6.8-10.6-2.5-20.7c18.3-42.6,41.2-82.3,73.6-112.9
					c19.1-18.1,37.6-32.5,55.3-42.7c37.1-21.4,71.1-24.9,100.7-7.7l39.2,22.8c-29.6-17.2-63.6-13.7-100.7,7.7
					c-17.7,10.2-36.2,24.6-55.3,42.7c-32.3,30.6-55.2,70.2-73.6,112.9C509.9,525.5,511.2,533,516.7,536.2z"/>
			</defs>
			<linearGradient id="SVGID_13_" gradientUnits="userSpaceOnUse" x1="472.4151" y1="427.3178" x2="743.7548" y2="427.3178">
				<stop  offset="0" style="stop-color:#FFA21E"/>
				<stop  offset="1" style="stop-color:#FFCB27"/>
			</linearGradient>
			<use xlink:href="#SVGID_12_"  style="overflow:visible;fill:url(#SVGID_13_);"/>
			<clipPath id="SVGID_14_">
				<use xlink:href="#SVGID_12_"  style="overflow:visible;"/>
			</clipPath>
			<linearGradient id="SVGID_15_" gradientUnits="userSpaceOnUse" x1="472.4151" y1="427.3178" x2="743.7549" y2="427.3178">
				<stop  offset="0" style="stop-color:#FFA21E"/>
				<stop  offset="1" style="stop-color:#FFCB27"/>
			</linearGradient>
			<path class="st16" d="M704.5,329.4c-0.3-0.2-0.7-0.4-1-0.6c-2.9-1.6-5.8-3-8.7-4.3c-2.8-1.2-5.6-2.2-8.4-3
				c-2.8-0.8-5.6-1.4-8.4-1.9c-2.8-0.5-5.7-0.8-8.5-1c-3-0.2-6-0.2-9-0.1c-3.3,0.1-6.5,0.5-9.9,1c-3.8,0.6-7.6,1.4-11.5,2.5
				c-5.1,1.4-10.3,3.2-15.5,5.3c-6.5,2.7-13,6-19.7,9.8c-17.7,10.2-36.2,24.6-55.3,42.7c-1.2,1.1-2.4,2.3-3.6,3.4
				c-4.3,4.3-8.5,8.8-12.5,13.4c-3.2,3.7-6.4,7.5-9.4,11.5c-2.8,3.6-5.5,7.3-8.1,11c-2.6,3.7-5.1,7.5-7.6,11.3c-2.5,4-5,8-7.4,12.1
				c-2.6,4.4-5.1,8.9-7.5,13.4c-2.7,5.2-5.4,10.4-8,15.7c-3.1,6.4-6,12.9-8.9,19.4c-0.2,0.5-0.5,1-0.7,1.6c-0.2,0.5-0.4,0.9-0.6,1.4
				c-0.2,0.5-0.4,1.1-0.6,1.6c-0.2,0.5-0.3,1.1-0.5,1.6c-0.2,0.6-0.3,1.1-0.4,1.7c-0.1,0.7-0.3,1.4-0.3,2c-0.7,5.8,1,10.2,4.9,12.4
				l39.2,22.8c-3.9-2.3-5.7-6.6-4.9-12.4c0.1-0.6,0.2-1.3,0.3-2c0.1-0.6,0.3-1.1,0.4-1.7c0.1-0.5,0.3-1.1,0.5-1.6
				c0.2-0.5,0.4-1,0.6-1.6c0.2-0.5,0.4-0.9,0.6-1.4c0.2-0.5,0.5-1,0.7-1.6c2.8-6.6,5.8-13,8.9-19.4c2.6-5.3,5.2-10.6,8-15.7
				c2.4-4.5,4.9-9,7.5-13.4c2.4-4.1,4.8-8.1,7.4-12.1c2.4-3.8,5-7.6,7.6-11.3c2.6-3.7,5.3-7.4,8.1-11c3-3.9,6.2-7.7,9.4-11.5
				c4-4.6,8.2-9.1,12.5-13.4c1.2-1.2,2.4-2.3,3.6-3.4c19.1-18.1,37.6-32.5,55.3-42.7c6.7-3.9,13.3-7.1,19.7-9.8
				c5.2-2.2,10.4-4,15.5-5.3c3.9-1.1,7.7-1.9,11.5-2.5c3.3-0.5,6.6-0.8,9.9-1c3-0.1,6-0.1,9,0.1c2.9,0.2,5.7,0.5,8.5,1
				c2.8,0.5,5.6,1.1,8.4,1.9c2.8,0.8,5.7,1.8,8.4,3c2.9,1.2,5.9,2.7,8.7,4.3c0.3,0.2,0.7,0.4,1,0.6L704.5,329.4z"/>
		</g>
		<g>
			<linearGradient id="SVGID_16_" gradientUnits="userSpaceOnUse" x1="511.6538" y1="510.1758" x2="774.4584" y2="510.1758">
				<stop  offset="0" style="stop-color:#FFCB27"/>
				<stop  offset="1" style="stop-color:#FFA21E"/>
			</linearGradient>
			<path class="st17" d="M747.7,354.6c29.5,19.4,35.5,71.1,13.3,124.5c-9,21.6-21.9,40.6-35.8,58.6c-11,14.2-22.6,28-33.3,43
				c-6.8,9.9-10.3,19.4-10.3,29.4c0,17.1-5.4,26.2-20.3,34.8c-8.1,5.8-16.5,10.6-24.6,15.3l-27.2,15.7c-11,6.3-16.8,2.6-17.5-9.6
				c-1-25.5,3.4-51.5,19.9-80.4c10-17.3,21.9-32.8,33.9-47.9c9.4-11.8,18.8-23.1,27.8-35.4c18.1-24.6,20.6-46.9,6.7-56.3
				c-4.9-3.1-11-4.4-18.2-2.9c-9.1,1.5-17.9,4.6-26.3,9.4c-16.4,9.5-31.4,25.6-44.9,49.1c-5.2,8.9-9.7,17.9-14.2,26.8
				c-4.3,8.5-8.6,14-13.2,16.7c-3.7,2.1-7.5,2.4-11.7,1c-11-2.9-22.1-6.2-32.7-9.4c-7.5-2.4-9.8-10.4-4.9-21.7
				c18.3-42.6,41.2-82.3,73.6-112.9c19.1-18.1,37.6-32.5,55.3-42.7C681.9,337.5,717.2,334.7,747.7,354.6z"/>
		</g>
	</g>
</g>
</svg>
