<?xml version="1.0" encoding="utf-8"?>
<!-- Generator: Adobe Illustrator 21.0.0, SVG Export Plug-In . SVG Version: 6.00 Build 0)  -->
<svg version="1.1" xmlns="http://www.w3.org/2000/svg" xmlns:xlink="http://www.w3.org/1999/xlink" x="0px" y="0px"
	 viewBox="0 0 1024 1024" style="enable-background:new 0 0 1024 1024;" xml:space="preserve">
<style type="text/css">
	.st0{display:none;}
	.st1{display:inline;}
	.st2{opacity:0.25;}
	.st3{display:inline;opacity:0.25;}
	.st4{enable-background:new    ;}
	.st5{fill:url(#SVGID_1_);}
	.st6{fill:url(#SVGID_2_);}
	.st7{fill:url(#SVGID_3_);}
	.st8{fill:url(#SVGID_4_);}
	.st9{fill:url(#SVGID_5_);}
	.st10{fill:url(#SVGID_6_);}
	.st11{fill:url(#SVGID_7_);}
	.st12{fill:#FDFDFD;}
	.st13{fill:url(#SVGID_8_);}
	.st14{fill:url(#SVGID_9_);}
	.st15{fill:url(#SVGID_10_);}
	.st16{fill:url(#SVGID_11_);}
	.st17{fill:url(#SVGID_12_);}
	.st18{fill:url(#SVGID_13_);}
	.st19{fill:url(#SVGID_14_);}
	.st20{fill:url(#SVGID_15_);}
</style>
<g id="图层_1" class="st0">
	<g id="bg">
		<g id="图层_2" class="st1">
			<g id="图标参考线">
				<g id="图标尺寸" class="st2">
					<path d="M1018.2,5.8v1012.5H5.8V5.8H1018.2 M1024,0H0v1024h1024V0z"/>
					<path d="M512,28.8c266.9,0,483.2,216.4,483.2,483.2S778.9,995.2,512,995.2S28.8,778.9,28.8,512S245.1,28.8,512,28.8 M512,23
						C241.9,23,23,241.9,23,512s218.9,489,489,489s489-218.9,489-489C1000.7,242,782,23.3,512,23z"/>
					<path d="M949.2,74.8v874.4H74.8V74.8H949.2 M955,69H69v886h886V69z"/>
					<path d="M995.2,28.8v966.5H28.8V28.8H995.2 M1001,23H23v978h978V23z"/>
					<path d="M995.2,189.8v644.3H28.8V189.8H995.2 M1001,184.1H23v655.8h978V184.1z"/>
				</g>
			</g>
		</g>
	</g>
	<g id="图标尺寸_1_" class="st3">
		<g>
			<path d="M1017.1,4.6v1010.2H6.9V4.6L1017.1,4.6 M1021.7,0h-6.9H4.6H0v6.9v1010.2v6.9h6.9h1010.2h6.9v-6.9V6.9V0H1021.7z"/>
		</g>
		<g>
			<path d="M512,27.6c266.3,0,482.2,215.8,482.2,482.2S778.3,991.9,512,991.9S29.8,776.1,29.8,509.7S245.7,27.6,512,27.6 M512,23
				c-268.6,0-489,218.1-489,486.7s218.1,486.7,489,486.7s489-218.1,489-486.7S780.6,23,512,23L512,23z"/>
		</g>
		<g>
			<path d="M948.2,73.5V946H75.8V73.5L948.2,73.5 M952.8,68.9h-6.9H73.5h-4.6v6.9v872.5v6.9h6.9h872.5h6.9v-6.9V75.8v-6.9H952.8z"/>
		</g>
		<g>
			<path d="M994.1,27.6v964.3H29.8V27.6L994.1,27.6 M998.7,23h-6.9H27.5h-4.6v6.9v964.3v6.9h6.9h964.3h6.9v-6.9V29.9V23H998.7z"/>
		</g>
		<g>
			<path d="M994.1,188.3v642.9H29.8V188.3L994.1,188.3 M998.7,183.7h-6.9H27.5h-4.6v4.6v642.9v6.9h6.9h964.3h6.9v-6.9V188.3v-4.6
				H998.7z"/>
		</g>
	</g>
</g>
<g id="图层_2_1_">
	<g>
		<g>
			<g class="st4">
				<linearGradient id="SVGID_1_" gradientUnits="userSpaceOnUse" x1="63.2945" y1="820.4621" x2="976.6119" y2="820.4621">
					<stop  offset="0" style="stop-color:#8EB0EC"/>
					<stop  offset="1" style="stop-color:#6386DB"/>
				</linearGradient>
				<path class="st5" d="M976.4,655.1c-0.1,0.8-0.1,1.5-0.3,2.3c-0.1,0.6-0.3,1.2-0.5,1.8c-0.2,0.7-0.4,1.4-0.6,2.2
					c-0.2,0.6-0.5,1.2-0.7,1.8c-0.3,0.8-0.6,1.5-1,2.3c-0.3,0.5-0.6,1.1-1,1.6c-0.5,0.8-1.1,1.7-1.7,2.5c-0.6,0.8-1.2,1.6-1.9,2.4
					c-0.2,0.2-0.3,0.4-0.5,0.6c-0.9,1-1.9,2-3,3c-0.7,0.6-1.5,1.2-2.2,1.8c-0.7,0.5-1.3,1.1-2,1.6c-0.8,0.6-1.7,1.2-2.6,1.7
					c-0.9,0.6-1.8,1.2-2.7,1.8L572.3,906.5c-2.1,1.3-4.4,2.4-6.8,3.4c-0.7,0.3-1.4,0.6-2,0.9c-1.8,0.8-3.7,1.5-5.6,2.1
					c-0.7,0.2-1.4,0.5-2.1,0.7c-1.2,0.4-2.5,0.7-3.7,1.1c-0.9,0.3-1.9,0.5-2.8,0.8c-1.3,0.3-2.6,0.6-4,0.9c-0.9,0.2-1.8,0.4-2.7,0.6
					c-2.7,0.5-5.4,0.9-8.2,1.1c-0.8,0.1-1.7,0.1-2.5,0.2c-1.6,0.1-3.2,0.3-4.9,0.3c-1,0-2.1,0.1-3.1,0.1c-1.3,0-2.6,0-3.9,0
					c-1.1,0-2.2,0-3.3-0.1c-1.2,0-2.4-0.1-3.7-0.2c-1.1-0.1-2.2-0.2-3.3-0.3c-1.2-0.1-2.4-0.3-3.6-0.4c-1.1-0.1-2.1-0.3-3.2-0.5
					c-1.3-0.2-2.5-0.4-3.8-0.7c-1-0.2-2-0.4-3-0.6c-1.5-0.3-3-0.7-4.5-1.1c-0.8-0.2-1.7-0.4-2.5-0.7c-2.6-0.8-5.2-1.6-7.7-2.6
					c-1.2-0.5-2.4-1-3.6-1.5c-0.6-0.3-1.3-0.5-1.9-0.8c-1.8-0.9-3.6-1.8-5.3-2.8l-386-224.2c-14.2-8.2-21.3-19-21.2-29.8l-0.2,69.6
					c0,10.8,7,21.6,21.2,29.8l386,224.2c1.7,1,3.5,1.9,5.3,2.8c0.6,0.3,1.2,0.5,1.9,0.8c1.1,0.5,2.1,1,3.2,1.4
					c0.1,0.1,0.3,0.1,0.4,0.1c2.5,1,5.1,1.8,7.7,2.6c0.2,0.1,0.4,0.1,0.6,0.2c0.6,0.2,1.2,0.3,1.8,0.5c1.5,0.4,3,0.8,4.5,1.1
					c0.4,0.1,0.8,0.2,1.2,0.3c0.6,0.1,1.2,0.2,1.8,0.3c1.3,0.2,2.5,0.5,3.8,0.7c0.5,0.1,1,0.2,1.5,0.3c0.6,0.1,1.1,0.1,1.7,0.2
					c1.2,0.2,2.4,0.3,3.6,0.4c0.6,0.1,1.1,0.1,1.7,0.2c0.5,0,1.1,0,1.6,0.1c1.2,0.1,2.4,0.1,3.7,0.2c0.6,0,1.2,0.1,1.8,0.1
					c0.5,0,1,0,1.5,0c1.3,0,2.6,0,3.9,0c0.7,0,1.3,0,2,0c0.4,0,0.8-0.1,1.2-0.1c1.6-0.1,3.3-0.2,4.9-0.3c0.6-0.1,1.3-0.1,1.9-0.1
					c0.2,0,0.4-0.1,0.6-0.1c2.8-0.3,5.5-0.7,8.2-1.1c0.1,0,0.3,0,0.4-0.1c0.8-0.1,1.5-0.3,2.3-0.5c1.3-0.3,2.7-0.5,4-0.9
					c1-0.2,1.9-0.5,2.8-0.8c1.2-0.3,2.5-0.7,3.7-1.1c0.3-0.1,0.5-0.1,0.8-0.2c0.4-0.1,0.8-0.3,1.3-0.5c1.9-0.7,3.8-1.4,5.6-2.1
					c0.7-0.3,1.4-0.6,2-0.9c2.3-1.1,4.6-2.2,6.8-3.4L955.6,752c0.3-0.2,0.6-0.3,0.9-0.5c0.7-0.4,1.2-0.8,1.9-1.2
					c0.9-0.6,1.8-1.1,2.6-1.7c0.7-0.5,1.3-1.1,2-1.6c0.7-0.6,1.5-1.2,2.2-1.8c0.1-0.1,0.3-0.2,0.4-0.4c0.9-0.9,1.8-1.7,2.6-2.6
					c0.2-0.2,0.3-0.4,0.5-0.6c0.5-0.5,1-1.1,1.4-1.6c0.2-0.2,0.3-0.5,0.5-0.7c0.6-0.8,1.2-1.7,1.7-2.5c0.2-0.4,0.5-0.7,0.7-1.1
					c0.1-0.2,0.2-0.4,0.3-0.6c0.4-0.7,0.7-1.5,1.1-2.3c0.2-0.4,0.4-0.9,0.6-1.3c0.1-0.1,0.1-0.3,0.1-0.5c0.3-0.7,0.4-1.4,0.6-2.2
					c0.1-0.5,0.3-1,0.4-1.4c0-0.1,0-0.3,0-0.4c0.1-0.8,0.2-1.5,0.3-2.3c0-0.5,0.2-1,0.2-1.5c0-0.2,0-0.4,0-0.6l0.2-69.6
					C976.6,653.7,976.5,654.4,976.4,655.1z"/>
				<g>
					<g>
						<linearGradient id="SVGID_2_" gradientUnits="userSpaceOnUse" x1="63.4906" y1="652.7681" x2="976.6122" y2="652.7681">
							<stop  offset="0" style="stop-color:#6386DB"/>
							<stop  offset="1" style="stop-color:#8EB0EC"/>
						</linearGradient>
						<path class="st6" d="M955.4,623.2c28.1,16.3,28.3,42.9,0.3,59.2L572.3,906.5c-27.9,16.3-73.5,16.3-101.6,0l-386-224.2
							c-28.2-16.4-28.3-42.9-0.4-59.2L467.8,399c27.9-16.3,73.5-16.3,101.6,0L955.4,623.2z"/>
					</g>
				</g>
			</g>
		</g>
		<g>
			<g class="st4">
				<linearGradient id="SVGID_3_" gradientUnits="userSpaceOnUse" x1="501.113" y1="802.7266" x2="501.113" y2="35.3436">
					<stop  offset="0" style="stop-color:#6386DB"/>
					<stop  offset="1" style="stop-color:#8EB0EC"/>
				</linearGradient>
				<path class="st7" d="M768.2,155.7c0.8-0.3,1.5-0.6,2.3-0.9c1.1-0.4,2.2-0.8,3.3-1.1c0.7-0.2,1.4-0.4,2.1-0.6
					c0.6-0.2,1.3-0.3,1.9-0.4c0.8-0.2,1.7-0.3,2.5-0.4c0.5-0.1,0.9-0.1,1.4-0.1c1-0.1,2-0.1,3-0.1c0.2,0,0.5,0,0.7,0
					c1.2,0.1,2.3,0.2,3.4,0.4c0.3,0.1,0.5,0.1,0.8,0.2c0.9,0.2,1.7,0.4,2.6,0.7c0.3,0.1,0.5,0.2,0.8,0.3c1.1,0.4,2.1,0.9,3.1,1.5
					L595.1,38.5c-0.1,0-0.2-0.1-0.3-0.1c-0.8-0.4-1.5-0.8-2.3-1.1c-0.1-0.1-0.3-0.1-0.5-0.2c-0.3-0.1-0.5-0.2-0.8-0.3
					c-0.4-0.1-0.8-0.3-1.2-0.4c-0.4-0.1-0.9-0.2-1.3-0.3c-0.3-0.1-0.5-0.1-0.8-0.2c-0.2,0-0.3-0.1-0.4-0.1c-0.9-0.2-1.9-0.3-2.8-0.3
					c-0.1,0-0.1,0-0.2,0c-0.2,0-0.5,0-0.7,0c-0.7,0-1.5-0.1-2.2,0c-0.2,0-0.5,0.1-0.8,0.1c-0.5,0-0.9,0.1-1.4,0.1
					c-0.4,0-0.9,0.1-1.3,0.1c-0.4,0.1-0.8,0.2-1.2,0.2c-0.6,0.1-1.3,0.3-1.9,0.4c-0.3,0.1-0.7,0.1-1,0.2c-0.3,0.1-0.7,0.3-1,0.4
					c-1.1,0.3-2.2,0.7-3.3,1.1c-0.4,0.2-0.8,0.2-1.2,0.4c-0.4,0.2-0.8,0.4-1.1,0.5c-0.4,0.2-0.7,0.3-1.1,0.5
					c-1.4,0.7-2.8,1.4-4.3,2.2L252.6,220.3c-1.5,0.9-3,1.8-4.4,2.8c-0.5,0.3-0.9,0.7-1.4,1c-1,0.7-2,1.4-2.9,2.2
					c-0.5,0.4-1.1,0.9-1.6,1.3c-0.9,0.7-1.8,1.5-2.6,2.3c-0.5,0.5-1.1,1-1.6,1.5c-0.3,0.3-0.7,0.6-1,0.9c-0.3,0.3-0.7,0.7-1,1.1
					c-1.1,1.1-2.1,2.2-3.1,3.3c-0.3,0.4-0.7,0.7-1,1.1c-0.3,0.3-0.5,0.6-0.8,1c-0.6,0.7-1.2,1.5-1.8,2.2c-0.4,0.5-0.8,0.9-1.2,1.4
					c-0.3,0.4-0.6,0.8-0.9,1.2c-0.4,0.6-0.9,1.2-1.3,1.7c-0.3,0.4-0.6,0.8-0.9,1.2c-0.5,0.7-0.9,1.4-1.4,2.1
					c-0.3,0.5-0.6,0.9-0.9,1.4c-0.1,0.2-0.3,0.4-0.4,0.6c-0.8,1.3-1.6,2.6-2.4,3.9c-0.1,0.1-0.1,0.2-0.2,0.3
					c-0.2,0.3-0.3,0.5-0.4,0.8c-0.5,0.9-1.1,1.9-1.6,2.9c-0.2,0.4-0.5,0.9-0.7,1.3c-0.2,0.5-0.5,0.9-0.7,1.4
					c-0.2,0.4-0.4,0.8-0.6,1.2c-0.5,1.1-1,2.2-1.5,3.3c-0.1,0.2-0.2,0.4-0.3,0.6c0,0.1-0.1,0.1-0.1,0.2c-0.6,1.4-1.2,2.8-1.7,4.2
					c-0.1,0.3-0.2,0.5-0.3,0.8c-0.2,0.5-0.4,1-0.5,1.5c-0.2,0.7-0.5,1.4-0.8,2.1c-0.2,0.5-0.3,1.1-0.5,1.6c-0.2,0.6-0.4,1.3-0.6,1.9
					c-0.1,0.4-0.3,0.8-0.4,1.2c-0.2,0.7-0.3,1.4-0.5,2.1c-0.2,0.8-0.4,1.6-0.6,2.4c-0.1,0.3-0.1,0.6-0.2,0.8
					c-0.1,0.6-0.2,1.1-0.3,1.7c-0.2,1.2-0.5,2.5-0.6,3.7c0,0.3-0.1,0.7-0.2,1c-0.1,0.8-0.2,1.5-0.2,2.3c-0.1,0.6-0.1,1.1-0.2,1.7
					c-0.1,1.7-0.2,3.4-0.2,5.1l1,355.5c0,5.5,0.8,10.4,2.1,14.6c2.3,7,6.2,12.2,11.5,15.2l200.9,116.8c-8.3-4.8-13.5-15.2-13.6-29.8
					l-1-355.5c0-1.7,0.1-3.4,0.2-5.1c0-0.5,0.1-1.1,0.2-1.7c0.1-1.1,0.2-2.2,0.4-3.3c0.2-1.2,0.4-2.5,0.6-3.7
					c0.2-0.9,0.3-1.7,0.5-2.6c0.2-0.8,0.4-1.6,0.6-2.4c0.3-1.1,0.6-2.2,0.9-3.3c0.2-0.6,0.4-1.3,0.6-1.9c0.4-1.2,0.8-2.5,1.3-3.7
					c0.2-0.5,0.4-1,0.5-1.5c0.6-1.7,1.3-3.4,2.1-5.1c0.1-0.2,0.2-0.4,0.3-0.6c0.7-1.5,1.4-3,2.1-4.5c0.2-0.5,0.5-0.9,0.7-1.4
					c0.7-1.4,1.5-2.8,2.3-4.2c0.2-0.3,0.3-0.5,0.5-0.8c0.9-1.6,1.9-3.2,2.9-4.8c0.3-0.5,0.6-0.9,0.9-1.3c0.7-1.1,1.5-2.2,2.3-3.3
					c0.4-0.6,0.9-1.2,1.3-1.8c0.7-0.9,1.4-1.8,2.1-2.7c0.6-0.7,1.2-1.5,1.8-2.2c0.6-0.7,1.2-1.3,1.8-2c1-1.1,2-2.2,3.1-3.3
					c0.7-0.7,1.3-1.3,2-2c0.5-0.5,1-1,1.6-1.5c0.9-0.8,1.7-1.5,2.6-2.3c0.5-0.4,1.1-0.9,1.6-1.3c1-0.8,1.9-1.5,2.9-2.2
					c0.5-0.3,0.9-0.7,1.4-1c1.5-1,2.9-2,4.4-2.8l309.4-178.6c1.4-0.8,2.9-1.5,4.3-2.2C767.5,156.1,767.9,155.9,768.2,155.7z"/>
				<g>
					<g>
						<linearGradient id="SVGID_4_" gradientUnits="userSpaceOnUse" x1="407.1425" y1="478.9739" x2="810.5683" y2="478.9739">
							<stop  offset="0" style="stop-color:#6386DB"/>
							<stop  offset="1" style="stop-color:#8EB0EC"/>
						</linearGradient>
						<path class="st8" d="M762.9,158.5c25.7-14.8,46.6-2.9,46.7,26.6l1,355.5c0.1,29.5-20.7,65.5-46.4,80.3L454.8,799.5
							c-25.7,14.8-46.6,2.9-46.7-26.6l-1-355.5c-0.1-29.5,20.7-65.5,46.4-80.3L762.9,158.5z"/>
					</g>
				</g>
			</g>
		</g>
		<g>
			<g class="st4">
				<linearGradient id="SVGID_5_" gradientUnits="userSpaceOnUse" x1="392.3099" y1="179.839" x2="644.9143" y2="179.839">
					<stop  offset="0" style="stop-color:#D7D8D5"/>
					<stop  offset="1" style="stop-color:#EDEDEE"/>
				</linearGradient>
				<path class="st9" d="M638.6,109.3c0.7-0.2,1.4-0.4,2.1-0.5c0.1,0,0.1,0,0.2,0c0.7-0.1,1.4,0,2.1,0.1c0,0,0.1,0,0.1,0
					c0.7,0.1,1.3,0.4,1.9,0.7l-55.5-32.2c0,0,0,0-0.1,0c-0.2-0.1-0.4-0.2-0.6-0.3c-0.2-0.1-0.4-0.2-0.7-0.2c-0.1,0-0.3-0.1-0.5-0.1
					c0,0-0.1,0-0.1,0c-0.1,0-0.1,0-0.2,0c-0.3,0-0.5-0.1-0.8-0.1c-0.3,0-0.6,0-0.8,0c-0.1,0-0.2,0-0.3,0c-0.1,0-0.1,0-0.2,0
					c-0.2,0-0.3,0-0.5,0c-0.4,0.1-0.7,0.1-1.1,0.2c-0.2,0-0.3,0.1-0.5,0.2c-0.2,0-0.3,0.1-0.5,0.2c-0.2,0.1-0.4,0.1-0.6,0.2
					c-0.6,0.2-1.2,0.5-1.8,0.9L405.1,179.4c-0.8,0.5-1.6,1-2.4,1.7c-0.3,0.2-0.5,0.4-0.7,0.7c-0.4,0.3-0.8,0.6-1.1,1
					c-0.2,0.2-0.3,0.4-0.5,0.5c-0.1,0.1-0.3,0.3-0.4,0.5c-0.2,0.2-0.3,0.3-0.5,0.5c-0.4,0.4-0.7,0.8-1,1.3c-0.1,0.2-0.2,0.3-0.3,0.5
					c-0.1,0.1-0.1,0.2-0.2,0.2c-0.1,0.2-0.2,0.3-0.3,0.4c-0.3,0.4-0.5,0.7-0.7,1.1c-0.2,0.4-0.5,0.7-0.7,1.1c0,0,0,0.1-0.1,0.1
					c0,0,0,0.1,0,0.1c-0.2,0.3-0.3,0.6-0.5,0.9c-0.2,0.4-0.4,0.7-0.6,1.1c-0.2,0.3-0.3,0.7-0.5,1c0,0,0,0,0,0.1c0,0,0,0,0,0.1
					c-0.2,0.4-0.3,0.8-0.5,1.2c-0.2,0.4-0.3,0.8-0.4,1.2c-0.1,0.2-0.1,0.4-0.2,0.6c0,0.1-0.1,0.2-0.1,0.3c0,0.1-0.1,0.3-0.1,0.4
					c-0.1,0.5-0.3,1-0.4,1.5c-0.1,0.3-0.1,0.6-0.2,0.9c0,0.2-0.1,0.3-0.1,0.5c0,0.1-0.1,0.3-0.1,0.4c-0.1,0.8-0.2,1.7-0.2,2.5
					l0.1,41.1c0,4.1,1.4,6.9,3.7,8.2l55.5,32.2c-2.3-1.3-3.7-4.2-3.7-8.2l-0.1-41.1c0-1,0.1-1.9,0.2-2.9c0-0.2,0.1-0.3,0.1-0.5
					c0.2-0.9,0.4-1.9,0.6-2.8c0-0.1,0.1-0.2,0.1-0.3c0.3-1,0.7-2,1.1-3c0,0,0,0,0-0.1c0.4-1,1-2,1.5-3c0,0,0-0.1,0.1-0.1
					c0.5-0.9,1.2-1.9,1.8-2.7c0.1-0.1,0.1-0.2,0.2-0.2c0.6-0.8,1.2-1.5,1.9-2.3c0.1-0.2,0.3-0.3,0.4-0.5c0.5-0.5,1.1-1,1.6-1.5
					c0.2-0.2,0.5-0.4,0.7-0.7c0.8-0.6,1.6-1.2,2.4-1.7l175.2-101.2c0.8-0.5,1.6-0.8,2.4-1.1C638.3,109.4,638.5,109.3,638.6,109.3z"
					/>
				<g>
					<linearGradient id="SVGID_6_" gradientUnits="userSpaceOnUse" x1="447.7738" y1="196.3883" x2="648.7773" y2="196.3883">
						<stop  offset="0" style="stop-color:#FBFBFB"/>
						<stop  offset="1" style="stop-color:#FBFBFB"/>
					</linearGradient>
					<path class="st10" d="M635.8,110.5c7.1-4.1,12.9-0.8,12.9,7.3l0.1,41.1c0,8.2-5.7,18.1-12.8,22.2L460.8,282.3
						c-7.1,4.1-12.9,0.8-12.9-7.3l-0.1-41.1c0-8.1,5.7-18.1,12.8-22.2L635.8,110.5z"/>
				</g>
			</g>
		</g>
		<g>
			<g class="st4">
				<linearGradient id="SVGID_7_" gradientUnits="userSpaceOnUse" x1="426.4394" y1="482.2936" x2="780.9725" y2="482.2936">
					<stop  offset="0" style="stop-color:#D7D8D5"/>
					<stop  offset="1" style="stop-color:#F6F6F9"/>
				</linearGradient>
				<path class="st11" d="M758.7,203.9c1-0.4,1.9-0.7,2.9-1c0.6-0.2,1.2-0.4,1.8-0.5c0.6-0.1,1.1-0.3,1.7-0.4
					c0.7-0.1,1.4-0.3,2.2-0.3c0.4,0,0.8-0.1,1.2-0.1c0.9-0.1,1.8-0.1,2.6-0.1c0.2,0,0.4,0,0.6,0c1,0.1,2,0.2,3,0.4
					c0.2,0,0.5,0.1,0.7,0.2c0.8,0.2,1.5,0.4,2.2,0.6c0.2,0.1,0.5,0.2,0.7,0.2c0.9,0.4,1.8,0.8,2.7,1.3l-14.1-8.2
					c-0.1,0-0.1-0.1-0.2-0.1c-0.7-0.4-1.3-0.7-2-1c-0.1-0.1-0.3-0.1-0.4-0.1c-0.2-0.1-0.5-0.2-0.7-0.2c-0.4-0.1-0.7-0.3-1.1-0.4
					c-0.4-0.1-0.8-0.2-1.2-0.3c-0.2-0.1-0.5-0.1-0.7-0.2c-0.1,0-0.3-0.1-0.4-0.1c-0.8-0.1-1.6-0.2-2.5-0.3c-0.1,0-0.1,0-0.2,0
					c-0.2,0-0.4,0-0.6,0c-0.6,0-1.3,0-1.9,0c-0.2,0-0.5,0.1-0.7,0.1c-0.4,0-0.8,0.1-1.2,0.1c-0.4,0-0.8,0.1-1.1,0.1
					c-0.3,0.1-0.7,0.2-1,0.2c-0.6,0.1-1.1,0.2-1.7,0.4c-0.3,0.1-0.6,0.1-0.9,0.2c-0.3,0.1-0.6,0.2-0.9,0.3c-0.9,0.3-1.9,0.6-2.9,1
					c-0.3,0.1-0.7,0.2-1,0.3c-0.2,0.1-0.4,0.2-0.6,0.3c-1.7,0.7-3.4,1.5-5.1,2.5L467,355.3c-1.3,0.8-2.6,1.6-3.9,2.5
					c-0.4,0.3-0.8,0.6-1.2,0.9c-0.9,0.6-1.7,1.3-2.6,1.9c-0.5,0.4-0.9,0.8-1.4,1.2c-0.8,0.7-1.5,1.3-2.3,2c-0.5,0.4-0.9,0.8-1.4,1.3
					c-0.3,0.3-0.6,0.5-0.9,0.8c-0.3,0.3-0.6,0.6-0.9,0.9c-0.9,0.9-1.8,1.9-2.7,2.9c-0.3,0.3-0.6,0.6-0.9,0.9
					c-0.2,0.3-0.5,0.6-0.7,0.8c-0.5,0.6-1.1,1.3-1.6,1.9c-0.3,0.4-0.7,0.8-1,1.3c-0.3,0.4-0.5,0.7-0.8,1.1c-0.4,0.5-0.8,1-1.1,1.5
					c-0.3,0.4-0.5,0.7-0.8,1.1c-0.4,0.6-0.8,1.2-1.2,1.8c-0.3,0.4-0.5,0.8-0.8,1.2c-0.1,0.2-0.2,0.3-0.3,0.5
					c-0.7,1.1-1.4,2.3-2.1,3.4c0,0.1-0.1,0.2-0.1,0.2c-0.1,0.2-0.3,0.5-0.4,0.7c-0.5,0.8-0.9,1.6-1.4,2.5c-0.2,0.4-0.4,0.8-0.6,1.2
					c-0.2,0.4-0.4,0.8-0.6,1.2c-0.2,0.4-0.4,0.7-0.5,1.1c-0.5,1-0.9,1.9-1.3,2.9c-0.1,0.2-0.2,0.3-0.2,0.5c0,0,0,0.1-0.1,0.1
					c-0.5,1.2-1,2.4-1.5,3.7c-0.1,0.2-0.2,0.5-0.2,0.7c-0.2,0.4-0.3,0.9-0.5,1.3c-0.2,0.6-0.5,1.2-0.7,1.8c-0.2,0.5-0.3,1-0.4,1.4
					c-0.2,0.6-0.3,1.1-0.5,1.7c-0.1,0.3-0.2,0.7-0.3,1c-0.2,0.6-0.3,1.2-0.5,1.9c-0.2,0.7-0.4,1.4-0.5,2.1c-0.1,0.2-0.1,0.5-0.2,0.7
					c-0.1,0.5-0.2,1-0.3,1.5c-0.2,1.1-0.4,2.2-0.6,3.2c0,0.3-0.1,0.6-0.2,0.9c-0.1,0.7-0.1,1.4-0.2,2c0,0.5-0.1,1-0.1,1.4
					c-0.1,1.5-0.2,3-0.2,4.5l0.9,311.3c0,3.2,0.3,6.2,0.8,8.9c1.6,8.2,5.6,14,11,17.2l14.1,8.2c-7.3-4.2-11.8-13.3-11.9-26.1
					l-0.9-311.3c0-1.5,0.1-3,0.2-4.5c0-0.5,0.1-1,0.1-1.4c0.1-1,0.2-1.9,0.4-2.9c0.2-1.1,0.4-2.2,0.6-3.2c0.1-0.7,0.3-1.5,0.4-2.2
					c0.2-0.7,0.3-1.4,0.5-2.1c0.2-1,0.5-1.9,0.8-2.9c0.2-0.6,0.3-1.1,0.5-1.7c0.3-1.1,0.7-2.2,1.1-3.3c0.2-0.4,0.3-0.9,0.5-1.3
					c0.6-1.5,1.2-3,1.8-4.5c0.1-0.2,0.2-0.3,0.2-0.5c0.6-1.3,1.2-2.6,1.9-3.9c0.2-0.4,0.4-0.8,0.6-1.2c0.6-1.2,1.3-2.4,2-3.7
					c0.1-0.2,0.3-0.5,0.4-0.7c0.8-1.4,1.7-2.8,2.6-4.2c0.3-0.4,0.5-0.8,0.8-1.2c0.7-1,1.3-1.9,2-2.9c0.4-0.5,0.8-1,1.1-1.5
					c0.6-0.8,1.2-1.6,1.8-2.3c0.5-0.6,1-1.3,1.6-1.9c0.5-0.6,1-1.2,1.6-1.8c0.9-1,1.8-2,2.7-2.9c0.6-0.6,1.1-1.2,1.7-1.7
					c0.5-0.4,0.9-0.9,1.4-1.3c0.8-0.7,1.5-1.4,2.3-2c0.5-0.4,0.9-0.8,1.4-1.2c0.8-0.7,1.7-1.3,2.6-1.9c0.4-0.3,0.8-0.6,1.2-0.9
					c1.3-0.9,2.6-1.7,3.9-2.5L752,207.1c1.7-1,3.4-1.8,5.1-2.5C757.6,204.3,758.2,204.1,758.7,203.9z"/>
				<g>
					<path class="st12" d="M752,207.1c22.5-13,40.8-2.6,40.9,23.3l0.9,311.3c0.1,25.8-18.1,57.3-40.6,70.3L482.3,768.4
						c-22.5,13-40.8,2.6-40.9-23.3l-0.9-311.3c-0.1-25.8,18.1-57.3,40.6-70.3L752,207.1z"/>
				</g>
			</g>
		</g>
		<g>
			<g class="st4">
				<linearGradient id="SVGID_8_" gradientUnits="userSpaceOnUse" x1="806.8593" y1="652.0286" x2="879.3412" y2="652.0286">
					<stop  offset="0" style="stop-color:#D7D8D5"/>
					<stop  offset="1" style="stop-color:#F6F6F9"/>
				</linearGradient>
				<path class="st13" d="M879.2,625.8C879.2,625.8,879.2,625.9,879.2,625.8c-0.1,0.3-0.2,0.6-0.4,0.8c0,0-0.1,0.1-0.1,0.1
					c-0.2,0.2-0.4,0.5-0.6,0.7c-0.2,0.2-0.4,0.3-0.6,0.4c-0.2,0.1-0.3,0.2-0.5,0.3l-28,16.3c-0.7,0.4-1.6,0.7-2.5,1
					c-0.1,0-0.3,0.1-0.4,0.1c-0.9,0.2-1.8,0.3-2.8,0.3c0,0-0.1,0-0.1,0c-1,0-2-0.1-2.9-0.3c0,0-0.1,0-0.1,0c-1-0.2-1.9-0.6-2.6-1
					l-28.2-16.3c-1.6-0.9-2.4-2.1-2.4-3.3l-0.1,33.2c0,1.2,0.8,2.4,2.4,3.3l28.2,16.3c0.4,0.2,0.8,0.4,1.2,0.6
					c0.3,0.1,0.6,0.2,1,0.3c0.2,0,0.3,0.1,0.5,0.1c0,0,0.1,0,0.1,0c0.1,0,0.2,0,0.2,0.1c0.3,0.1,0.5,0.1,0.8,0.1
					c0.3,0,0.5,0.1,0.8,0.1c0.3,0,0.5,0,0.8,0c0.1,0,0.2,0,0.3,0c0,0,0.1,0,0.1,0c0.1,0,0.3,0,0.4,0c0.3,0,0.6,0,0.9-0.1
					c0.3,0,0.7-0.1,1-0.1c0.2,0,0.3-0.1,0.5-0.1c0.1,0,0.3-0.1,0.4-0.1c0.2-0.1,0.5-0.1,0.7-0.2c0.6-0.2,1.3-0.5,1.8-0.8l28-16.3
					c0,0,0.1,0,0.1-0.1c0.2-0.1,0.3-0.2,0.4-0.3c0.2-0.1,0.4-0.3,0.6-0.4c0,0,0,0,0.1,0c0.2-0.2,0.4-0.4,0.5-0.5
					c0,0,0.1-0.1,0.1-0.1c0,0,0.1-0.1,0.1-0.1c0.1-0.1,0.1-0.1,0.2-0.2c0.1-0.2,0.2-0.3,0.2-0.5c0,0,0,0,0-0.1c0,0,0-0.1,0-0.1
					c0-0.1,0.1-0.2,0.1-0.3c0-0.2,0-0.3,0.1-0.5c0,0,0,0,0-0.1l0.1-33.2C879.3,625.3,879.3,625.5,879.2,625.8z"/>
				<g>
					<linearGradient id="SVGID_9_" gradientUnits="userSpaceOnUse" x1="806.9531" y1="624.9706" x2="879.3413" y2="624.9706">
						<stop  offset="0" style="stop-color:#FBFBFB"/>
						<stop  offset="1" style="stop-color:#FBFBFB"/>
					</linearGradient>
					<path class="st14" d="M877,621.7c3.2,1.8,3.2,4.8,0,6.6l-28,16.3c-3.2,1.8-8.3,1.9-11.5,0l-28.2-16.3c-3.2-1.8-3.2-4.8,0-6.6
						l28-16.3c3.1-1.8,8.3-1.8,11.4,0L877,621.7z"/>
				</g>
			</g>
		</g>
		<g>
			<g>
				<g class="st4">
					<linearGradient id="SVGID_10_" gradientUnits="userSpaceOnUse" x1="735.6031" y1="677.4258" x2="808.1794" y2="677.4258">
						<stop  offset="0" style="stop-color:#D7D8D5"/>
						<stop  offset="1" style="stop-color:#F6F6F9"/>
					</linearGradient>
					<path class="st15" d="M808,634.6C808,634.7,808,634.7,808,634.6c-0.1,0.3-0.2,0.6-0.4,0.8c0,0-0.1,0.1-0.1,0.1
						c-0.2,0.2-0.4,0.5-0.6,0.7c-0.2,0.1-0.4,0.3-0.6,0.4c-0.2,0.1-0.3,0.2-0.5,0.4l-28,16.3c-0.7,0.4-1.6,0.7-2.5,1
						c-0.1,0-0.3,0.1-0.4,0.1c-0.9,0.2-1.8,0.3-2.8,0.3c0,0-0.1,0-0.1,0c-1,0-2-0.1-2.9-0.3c0,0-0.1,0-0.1,0c-1-0.2-1.8-0.6-2.6-1
						l-28.2-16.3c-1.6-0.9-2.4-2.1-2.4-3.3l-0.2,66.3c0,1.2,0.8,2.4,2.4,3.3l28.2,16.3c0.4,0.2,0.8,0.4,1.2,0.6
						c0.3,0.1,0.6,0.2,1,0.3c0.2,0,0.3,0.1,0.5,0.1c0,0,0.1,0,0.1,0c0.1,0,0.2,0,0.2,0.1c0.3,0.1,0.5,0.1,0.8,0.1
						c0.3,0,0.5,0.1,0.8,0.1c0.3,0,0.5,0,0.8,0c0.1,0,0.2,0,0.3,0c0,0,0.1,0,0.1,0c0.1,0,0.3,0,0.4,0c0.3,0,0.6,0,0.9-0.1
						c0.3,0,0.7-0.1,1-0.1c0.1,0,0.3-0.1,0.4-0.1c0.1,0,0.3-0.1,0.4-0.1c0.2-0.1,0.5-0.1,0.7-0.2c0.6-0.2,1.2-0.5,1.8-0.8l28-16.3
						c0,0,0.1,0,0.1-0.1c0.2-0.1,0.3-0.2,0.4-0.3c0.2-0.1,0.4-0.3,0.6-0.4c0,0,0,0,0.1,0c0.2-0.2,0.4-0.4,0.5-0.5
						c0,0,0.1-0.1,0.1-0.1c0,0,0.1-0.1,0.1-0.1c0-0.1,0.1-0.1,0.2-0.2c0.1-0.2,0.2-0.3,0.2-0.5c0,0,0,0,0-0.1c0,0,0-0.1,0-0.1
						c0-0.1,0.1-0.2,0.1-0.3c0-0.2,0-0.3,0.1-0.5c0,0,0,0,0-0.1l0.2-66.3C808.2,634.1,808.1,634.4,808,634.6z"/>
					<g>
						<linearGradient id="SVGID_11_" gradientUnits="userSpaceOnUse" x1="735.7912" y1="633.7858" x2="808.1793" y2="633.7858">
							<stop  offset="0" style="stop-color:#FBFBFB"/>
							<stop  offset="1" style="stop-color:#FBFBFB"/>
						</linearGradient>
						<path class="st16" d="M805.8,630.5c3.2,1.8,3.2,4.8,0,6.6l-28,16.3c-3.1,1.8-8.3,1.8-11.4,0l-28.2-16.3
							c-3.2-1.8-3.2-4.8,0-6.6l28-16.3c3.2-1.8,8.3-1.9,11.5,0L805.8,630.5z"/>
					</g>
				</g>
			</g>
		</g>
		<g>
			<g>
				<linearGradient id="SVGID_12_" gradientUnits="userSpaceOnUse" x1="664.3458" y1="705.7161" x2="737.0255" y2="705.7161">
					<stop  offset="0" style="stop-color:#D7D8D5"/>
					<stop  offset="1" style="stop-color:#F6F6F9"/>
				</linearGradient>
				<path class="st17" d="M736.9,650.9C736.9,650.9,736.9,651,736.9,650.9c-0.1,0.3-0.2,0.6-0.4,0.8c0,0-0.1,0.1-0.1,0.1
					c-0.2,0.2-0.4,0.5-0.6,0.7c-0.2,0.1-0.4,0.3-0.6,0.4c-0.2,0.1-0.3,0.2-0.5,0.3l-28,15.5c-0.7,0.4-1.6,0.7-2.5,0.9
					c-0.1,0-0.3,0.1-0.4,0.1c-0.9,0.2-1.8,0.3-2.8,0.3c0,0-0.1,0-0.1,0c-1,0-2-0.1-2.9-0.3c0,0-0.1,0-0.1,0c-1-0.2-1.8-0.5-2.6-1
					L667,653.3c-1.6-0.9-2.4-2-2.4-3.2l-0.3,91.3c0,1.2,0.8,2.3,2.4,3.2l28.2,15.5c0.4,0.2,0.8,0.4,1.2,0.5c0.3,0.1,0.6,0.2,1,0.3
					c0.2,0,0.3,0.1,0.5,0.1c0,0,0.1,0,0.1,0c0.1,0,0.2,0,0.2,0.1c0.3,0.1,0.5,0.1,0.8,0.1c0.3,0,0.5,0.1,0.8,0.1c0.3,0,0.5,0,0.8,0
					c0.1,0,0.2,0,0.3,0c0,0,0.1,0,0.1,0c0.1,0,0.3,0,0.4,0c0.3,0,0.6,0,0.9-0.1c0.3,0,0.7-0.1,1-0.1c0.1,0,0.3-0.1,0.4-0.1
					c0.1,0,0.3-0.1,0.4-0.1c0.2-0.1,0.5-0.1,0.7-0.2c0.6-0.2,1.2-0.4,1.8-0.7l28-15.5c0,0,0.1,0,0.1-0.1c0.2-0.1,0.3-0.2,0.4-0.3
					c0.2-0.1,0.4-0.3,0.6-0.4c0,0,0,0,0.1,0c0.2-0.2,0.4-0.3,0.5-0.5c0,0,0.1-0.1,0.1-0.1c0,0,0.1-0.1,0.1-0.1
					c0-0.1,0.1-0.1,0.1-0.2c0.1-0.1,0.2-0.3,0.2-0.4c0,0,0,0,0-0.1c0,0,0-0.1,0-0.1c0-0.1,0.1-0.2,0.1-0.3c0-0.1,0-0.3,0.1-0.4
					c0,0,0,0,0-0.1l0.3-91.3C737,650.4,737,650.6,736.9,650.9z"/>
				<g>
					<linearGradient id="SVGID_13_" gradientUnits="userSpaceOnUse" x1="664.618" y1="650.0955" x2="737.0255" y2="650.0955">
						<stop  offset="0" style="stop-color:#FBFBFB"/>
						<stop  offset="1" style="stop-color:#FBFBFB"/>
					</linearGradient>
					<path class="st18" d="M734.6,646.9c3.2,1.7,3.2,4.6,0,6.3l-28,15.5c-3.1,1.7-8.3,1.7-11.4,0L667,653.3
						c-3.2-1.8-3.2-4.6-0.1-6.3l28-15.5c3.1-1.7,8.3-1.7,11.5,0L734.6,646.9z"/>
				</g>
			</g>
		</g>
		<g>
			<g>
				<g>
					<linearGradient id="SVGID_14_" gradientUnits="userSpaceOnUse" x1="666.767" y1="297.2664" x2="719.5096" y2="297.2664">
						<stop  offset="0" style="stop-color:#6386DB"/>
						<stop  offset="1" style="stop-color:#8EB0EC"/>
					</linearGradient>
					<path class="st19" d="M693.1,267c14.6-8.4,26.4-1.7,26.4,15.1c0,16.8-11.7,37.1-26.3,45.5c-14.6,8.4-26.4,1.7-26.5-15.1
						C666.7,295.8,678.5,275.4,693.1,267z"/>
				</g>
				<g>
					<linearGradient id="SVGID_15_" gradientUnits="userSpaceOnUse" x1="464.0368" y1="490.625" x2="767.0684" y2="490.625">
						<stop  offset="0" style="stop-color:#6386DB"/>
						<stop  offset="1" style="stop-color:#8EB0EC"/>
					</linearGradient>
					<path class="st20" d="M752.1,370.2c12.3,4.9,14.9,15.6,14.9,23.7s-2.5,21.7-14.7,40.7c-8.1,12.6-19.3,26.1-33.5,40.1
						c-4.7,4.7-9.8,9.5-15.1,14.2c1.4,5.3,2.6,10.6,3.5,15.8c2.7,15.5,3.1,30.1,1.2,43.1c-2.9,19.9-10.7,33.1-16.7,40.5
						c-4.7,5.8-10,10.5-15.4,13.6c-5.9,3.3-11.2,5.2-16.3,6c-10,1.7-20.9,0.3-32.5-4.2c-3.9-1.6-7.8-3.5-11.8-5.7
						c-3.9,6.6-7.8,13.1-11.7,19.1c-11.5,17.8-22.3,31.9-32.4,41.7c-5,5-10.3,9.3-15.7,12.5c-5.9,3.4-11.2,4.9-15.9,4.5
						c-6.1-0.5-13.9-4.6-16.9-21.2c-2-10.9-1.6-25.9,0.9-44.4c0.9-6.4,2.1-12.9,3.4-19.8c-5.3,1.4-10.4,2.5-15.2,3.2
						c-14.1,2.3-25.4,1.8-33.6-1.4c-12.3-4.9-14.9-15.5-15-23.6c0-8.1,2.5-21.6,14.8-40.7c8.1-12.6,19.3-26.1,33.4-40.1
						c4.7-4.7,9.8-9.5,15.1-14.2c-1.4-5.3-2.6-10.6-3.5-15.8c-2.7-15.6-3.1-30.1-1.2-43.2c2.9-19.9,10.7-33,16.7-40.5
						c3.7-4.6,8.9-9.8,15.9-13.9c4.5-2.6,9.8-4.7,15.7-5.7c10.1-1.7,21-0.3,32.6,4.2c4,1.6,8,3.4,11.7,5.6
						c3.9-6.6,7.8-13.1,11.7-19.1c10.8-16.8,21.1-30.2,30.6-39.9c-2.3,10.2-2.1,19.6,0.7,26.7c-6.1,7.6-11.9,15.7-17.3,24.1
						c-3.6,5.6-7.2,11.6-10.9,17.9c6.8,5.2,13.5,11.2,20,18.1c11.2-5.4,22-9.9,32.3-13.6c1.3-6.4,2.4-12.6,3.2-18.5
						c0.8-5.8,1.4-11.6,1.7-17.2c2-0.8,4-1.8,6-2.9c5.6-3.2,10.9-7.7,15.8-13.1c-0.2,8.2-0.9,16.7-2.2,25.4
						c-0.9,6.3-2.1,12.9-3.4,19.8c5.3-1.4,10.4-2.5,15.2-3.3C732.7,366.5,744,366.9,752.1,370.2z M615.7,527.1
						c7.6-4.4,15.1-9,22.7-13.9c4.1-9.7,8.1-19.3,11.8-29.1c3.8-9.7,7.3-19.4,10.7-29.1c-3.4-5.8-7-11.4-10.8-16.7
						c-3.8-5.4-7.8-10.5-12-15.3c-7.6,3.8-15.1,7.9-22.7,12.3c-7.6,4.4-15.1,9-22.7,13.9c-4.1,9.6-8,19.3-11.8,29
						c-3.8,9.7-7.3,19.4-10.7,29.1c3.3,5.7,6.9,11.3,10.8,16.7c3.9,5.5,7.9,10.5,12,15.3C600.5,535.6,608,531.5,615.7,527.1
						 M534,563c3.4-13.3,7.5-27.3,12.3-41.8c-4.8-9-9-18.2-12.4-27.5c-4.9,4.4-9.7,8.8-14.1,13.3c-11.5,11.4-20.8,22.3-26.8,31.8
						c-3.3,5.2-7.2,12.4-7.2,17.4c0,5.1,4,7.7,7.3,9c6.1,2.4,15.3,2.7,26.9,0.8C524.3,565.4,529,564.3,534,563 M738.2,423.8
						c3.3-5.3,7.2-12.4,7.2-17.4c0-5-4-7.7-7.3-9c-6.1-2.4-15.3-2.7-26.9-0.8c-4.4,0.7-9.2,1.8-14.2,3.1
						c-3.4,13.3-7.5,27.3-12.2,41.7c4.8,9,8.9,18.2,12.4,27.5c5-4.4,9.7-8.8,14.1-13.2C723,444.1,732.2,433.2,738.2,423.8
						 M590.2,606.2c3.6-5.6,7.3-11.6,10.9-17.8c-7.1-5.4-13.8-11.5-20-18.1c-11.2,5.4-22,9.9-32.3,13.6c-1.3,6.5-2.4,12.6-3.2,18.5
						c-2.1,15.1-2.5,27.4-1,35.5c0.8,4.5,2.5,9.9,6.4,10.2c1.5,0.1,3.3-0.5,5.1-1.6c2.9-1.7,6-4.4,8.5-6.9
						C572,632.2,580.9,620.6,590.2,606.2 M544,407c-1.4,9.7-1,21.6,1.2,34.2c0.8,4.9,1.9,9.8,3.3,14.8c10.2-8.1,21-16,32.3-23.7
						c6.4-14.3,13.1-28.1,19.9-41.1c-3.7-2-7.3-3.8-11-5.2c-9.4-3.7-18.3-5-25.7-3.7c-2.7,0.4-5.6,1.4-8.5,2.9
						c-0.1,0.1-0.2,0.1-0.4,0.2c-1.7,1-3.3,2.4-4.8,4.1C546.5,394.2,544.7,401.6,544,407 M687.2,555.6c1.4-9.8,1-21.7-1.2-34.2
						c-0.9-4.9-2-9.8-3.3-14.8c-10.3,8.1-21.1,16.1-32.3,23.7c-6.4,14.3-13.1,28.1-19.9,41.1c3.7,2,7.3,3.8,11,5.2
						c9.4,3.7,18.3,5,25.7,3.7c2.5-0.4,5.6-1.2,8.5-2.9c1.9-1.1,3.6-2.5,5.1-4.3C684.7,568.4,686.4,561,687.2,555.6 M675.8,406.3
						c-3.5,1.3-7,2.6-10.5,4.1c1.2,1.5,2.3,3.1,3.5,4.6c1.1,1.6,2.2,3.2,3.3,4.7C673.5,415.2,674.8,410.7,675.8,406.3L675.8,406.3
						 M559,542.6c-1.3,4.5-2.6,9-3.7,13.4c3.5-1.3,7-2.6,10.5-4c-1.2-1.5-2.3-3.1-3.5-4.7C561.2,545.8,560.1,544.2,559,542.6
						 M555,476c1.2,3.1,2.5,6.2,3.7,9.2c1.1-2.9,2.2-5.7,3.3-8.6c1.2-2.9,2.3-5.8,3.4-8.6C562,470.6,558.5,473.3,555,476
						 M676.2,486.3c-1.2-3.1-2.5-6.2-3.8-9.2c-1.1,2.9-2.2,5.8-3.3,8.6l-0.1,0.1c-1.1,2.9-2.2,5.7-3.2,8.5
						C669.2,491.7,672.7,489,676.2,486.3 M615.8,561.4c2.3-4.4,4.5-8.9,6.7-13.3l-13.4,7.7C611.3,557.7,613.5,559.6,615.8,561.4
						 M615.3,401.1c-2.3,4.4-4.5,8.9-6.6,13.3l13.4-7.7C619.9,404.8,617.7,402.9,615.3,401.1L615.3,401.1"/>
				</g>
			</g>
		</g>
	</g>
</g>
</svg>
